<?xml version="1.0" encoding="utf-8"?>
<svg version="1.1" id="Layer_1" xmlns="http://www.w3.org/2000/svg" x="0px" y="0px" width="100%" viewBox="13.488 20.048 359.205 149.94" enable-background="new 0 0 500 500">
  <path fill="#1D2832" opacity="1.000000" stroke="none" d="M 155.59 130.552 C 152.441 134.786 149.823 139.588 146.034 143.141 C 137.408 151.233 126.902 156.273 115.292 158.375 C 100.311 161.089 85.896 159.608 72.373 151.661 C 63.289 146.322 55.601 139.494 49.759 130.963 C 44.016 122.577 40.708 113.051 39.71 102.707 C 39.028 95.639 39.807 88.827 41.375 81.789 C 41.817 83.081 42.225 84.573 42.12 86.028 C 41.939 88.539 41.122 91.027 41.131 93.523 C 41.169 103.352 42.896 112.814 47.952 121.447 C 48.31 122.057 48.26 122.904 48.615 123.517 C 50.506 126.786 52.467 130.016 54.572 133.542 C 56.077 131.152 57.066 129.581 58.055 128.01 C 60.382 130.662 62.63 133.387 65.05 135.951 C 72.927 144.301 83.018 148.167 94.055 150.039 C 106.427 152.139 118.205 149.758 129.317 144.482 C 141.103 138.887 148.582 128.991 153.486 117.235 C 155.583 112.209 156.492 106.687 158.266 101.229 C 158.478 102.822 158.461 104.59 158.231 106.33 C 157.885 108.933 158.25 111.141 161.553 112.696 C 160.251 113.08 159.466 113.312 158.649 113.464 C 158.567 113.357 158.519 113.328 158.47 113.299 C 158.539 113.381 158.61 113.464 158.68 113.8 C 158.151 115.565 157.718 117.119 157.075 118.581 C 155.797 121.483 154.191 124.259 153.14 127.236 C 152.537 128.944 152.815 130.899 155.59 130.552 Z" style=""/>
  <path fill="#192530" opacity="1.000000" stroke="none" d="M 177.447 116.643 C 177.198 116.653 176.949 116.662 176.385 116.726 C 175.91 116.882 175.793 117.02 175.719 117.196 C 174.7 117.196 173.68 117.196 172.154 117.196 C 172.154 106.358 172.154 95.795 172.154 85.022 C 172.385 84.979 172.925 84.803 173.47 84.788 C 179.762 84.616 186.055 84.39 192.347 84.408 C 193.177 84.411 194.141 85.588 194.774 86.425 C 195.097 86.854 194.754 87.741 194.834 88.406 C 195.133 90.879 194.195 91.903 191.597 91.785 C 187.775 91.612 183.938 91.74 180.041 91.74 C 179.736 93.751 179.484 95.411 179.163 97.524 C 183.113 97.524 186.75 97.558 190.386 97.508 C 191.976 97.486 193.343 97.522 193.11 99.719 C 192.904 101.668 193.972 104.342 190.548 104.441 C 187.098 104.54 183.644 104.462 180.036 104.462 C 179.738 106.222 179.486 107.712 178.99 109.46 C 178.314 110.412 177.597 111.072 177.508 111.808 C 177.317 113.399 177.448 115.029 177.447 116.643 Z" style=""/>
  <path opacity="1.000000" stroke="none" d="M 26.48 41.821 C 26.805 41.233 27.129 40.646 27.92 40.013 C 29.688 39.744 30.99 39.52 32.292 39.296 C 35.195 41.745 38.69 41.267 42.064 41.193 C 46.754 41.088 50.236 42.962 51.958 47.36 C 55.113 55.416 58.106 63.536 61.114 71.649 C 62.453 75.259 63.584 78.95 65.006 82.526 C 65.276 83.206 66.438 83.862 67.241 83.935 C 69.42 84.132 71.627 84.008 74.07 84.245 C 73.07 86.066 71.708 86.665 69.499 86.191 C 68.446 85.965 67.016 87.502 65.755 88.24 C 66.543 89.13 67.331 90.019 68.118 91.148 C 67.859 93.08 67.6 94.771 67.267 96.951 C 66.644 96.683 65.697 96.482 65.028 95.94 C 63.87 95.002 62.884 93.852 61.801 92.57 C 61.373 91.238 60.973 90.127 60.707 88.904 C 60.544 88.448 60.246 88.102 59.916 87.524 C 57.655 81.489 55.345 75.717 53.216 69.878 C 51.192 64.332 49.494 58.663 47.365 53.16 C 46.628 51.254 45.319 48.604 43.762 48.185 C 40.61 47.337 37.034 47.303 33.776 47.828 C 30.522 48.352 29.429 48.148 28.434 44.982 C 28.075 43.837 27.148 42.87 26.48 41.821 Z" style="fill: rgba(54, 64, 73, 0.98);"/>
  <path fill="#303B45" opacity="1.000000" stroke="none" d="M 176.896 120.721 C 176.896 120.721 176.953 120.911 176.936 121.246 C 177.31 122.238 177.702 122.897 178.094 123.555 C 178.094 123.555 178.092 123.578 178.137 123.708 C 178.293 124.005 178.443 124.119 178.631 124.183 C 178.631 124.183 178.607 124.193 178.607 124.398 C 178.012 127.812 178.432 128.266 181.469 127.691 C 181.973 128.194 182.477 128.697 183.135 129.505 C 183.853 130.068 184.418 130.326 184.983 130.583 C 186.605 130.973 188.214 131.621 189.852 131.706 C 195.804 132.017 201.766 132.326 207.723 132.296 C 223.525 132.217 239.326 131.954 255.128 131.786 C 256.175 131.774 257.225 131.943 258.261 132.355 C 256.057 132.755 253.866 132.826 251.403 132.896 C 248.646 132.896 246.161 132.889 243.676 132.901 C 240.274 132.917 239.449 134.492 241.234 137.691 C 241.234 137.94 241.233 138.04 241.233 138.14 C 236.77 138.279 232.307 138.418 227.495 138.312 C 226.818 137.898 226.492 137.585 226.165 137.583 C 218.962 137.548 211.759 137.529 204.556 137.58 C 204.025 137.584 203.498 138.151 202.97 138.456 C 200.439 138.505 197.909 138.555 195.045 138.374 C 192.827 137.812 190.97 135.868 189.045 138.05 C 188.612 138.041 188.179 138.031 187.522 137.776 C 186.678 136.994 186.134 136.189 185.418 135.987 C 184.377 135.692 183.212 135.833 182.1 135.787 C 182.1 135.787 182.086 135.795 182.058 135.603 C 181.647 135.165 181.263 134.918 180.88 134.671 C 180.88 134.671 180.931 134.65 180.922 134.437 C 180.249 133.032 179.633 131.81 178.9 130.662 C 178.49 130.02 177.514 129.551 177.429 128.919 C 176.913 125.048 173.901 123.317 171.197 121.297 C 171.785 120.913 172.373 120.529 173.233 120.24 C 173.659 120.276 173.811 120.216 173.964 120.157 C 174.668 120.03 175.372 119.903 176.253 120.054 C 176.586 120.462 176.741 120.592 176.896 120.721 M 181.79 132.063 C 181.79 132.063 181.763 132.014 181.79 132.063 Z" style=""/>
  <path opacity="1.000000" stroke="none" d="M 138.635 102.285 C 137.278 103.49 135.92 104.695 134.186 105.763 C 131.102 105.955 128.394 106.563 125.688 106.555 C 119.821 106.537 113.946 105.947 108.094 106.147 C 106.173 106.212 103.409 105.043 102.072 107.841 C 98.502 107.846 94.931 107.852 90.996 107.613 C 87.952 106.913 85.28 106.166 82.59 106.093 C 80.306 106.031 77.964 106.599 75.714 107.154 C 72.818 107.868 68.318 106.447 67.024 103.978 C 68.032 101.555 69.216 99.612 71.868 99.123 C 72.158 99.119 72.449 99.116 73.048 99.25 C 73.695 99.312 74.033 99.236 74.371 99.161 C 80.281 99.155 86.19 99.149 92.59 99.317 C 96.707 99.773 100.333 100.055 104.15 100.434 C 108.323 104.591 112.851 105.143 118.011 102.944 C 119.894 102.141 121.012 101.157 121.091 99.063 C 121.239 99.056 121.537 99.049 121.678 99.223 C 125.157 102.556 128.31 100.506 131.422 98.963 C 131.715 98.818 131.583 97.816 131.649 97.212 C 132.18 96.636 132.711 96.061 133.614 95.515 C 135.536 97.792 137.086 100.039 138.635 102.285 Z" style="fill: rgba(30, 44, 54, 0.945);"/>
  <path fill="#464E59" opacity="1.000000" stroke="none" d="M 356.614 121.074 C 355.321 128.226 350.97 132.878 344.503 135.728 C 339.564 137.903 334.362 138.294 329.003 138.16 C 320.23 137.94 311.448 138.052 302.391 137.776 C 301.982 135.665 298.788 135.331 300.076 132.895 C 304.869 132.892 309.392 132.942 313.913 132.847 C 314.836 132.827 315.749 132.266 316.667 131.954 C 320.149 131.913 323.631 131.872 327.558 131.981 C 329.424 132.043 330.845 131.956 332.265 131.869 C 338.032 132.179 343.179 130.691 347.186 126.362 C 348.308 125.149 348.982 123.522 350.188 121.864 C 350.61 121.274 350.708 120.905 350.805 120.536 C 350.805 120.536 350.775 120.315 351.059 120.213 C 353.226 119.718 355.108 119.324 356.99 118.93 C 357.031 119.218 357.071 119.507 356.991 120.095 C 356.784 120.622 356.699 120.848 356.614 121.074 Z" style=""/>
  <path fill="#28303B" opacity="1.000000" stroke="none" d="M 57.941 127.83 C 57.066 129.581 56.077 131.152 54.572 133.542 C 52.467 130.016 50.506 126.786 48.615 123.517 C 48.26 122.904 48.31 122.057 47.952 121.447 C 42.896 112.814 41.169 103.352 41.131 93.523 C 41.122 91.027 41.939 88.539 42.12 86.028 C 42.225 84.573 41.817 83.081 41.417 81.532 C 41.876 79.507 41.901 76.773 44.769 76.857 C 47.084 76.925 49.419 80.85 49.194 83.677 C 49.063 85.33 48.815 86.978 48.54 88.615 C 46.696 99.579 48.845 109.94 53.393 119.887 C 54.628 122.586 56.337 125.069 57.941 127.83 Z" style=""/>
  <path fill="#303B45" opacity="1.000000" stroke="none" d="M 79.468 36.918 C 79.468 36.918 79.762 36.858 80.115 36.927 C 82.639 37.75 84.151 36.996 85.105 34.969 C 92.844 32.137 100.802 31.903 108.879 32.91 C 111.817 33.277 114.8 33.354 117.705 33.879 C 119.67 34.234 121.603 34.992 123.429 35.833 C 127.86 37.876 132.221 40.071 136.859 42.326 C 135.798 44.246 135.015 45.663 133.907 47.251 C 132.276 46.796 130.959 46.192 129.664 45.543 C 121.383 41.39 112.576 38.718 103.367 38.874 C 96.816 38.985 90.294 40.726 83.756 41.715 C 83.504 41.753 83.215 41.541 82.941 41.444 C 83.222 40.672 83.481 39.961 83.803 39.078 C 81.877 38.959 79.53 39.994 79.468 36.918 Z" style=""/>
  <path fill="#16232D" opacity="1.000000" stroke="none" d="M 305.033 99.865 C 305.275 100.158 305.459 100.598 305.769 100.722 C 308.767 101.921 310.292 103.967 310.282 107.33 C 310.272 110.903 308.806 113.631 305.711 115.048 C 303.246 116.176 300.459 116.924 297.76 117.134 C 293.945 117.43 290.078 117.074 286.185 116.713 C 288.083 116.228 290.028 116.028 291.099 115.918 C 291.563 113.656 291.91 111.969 292.524 110.283 C 295.161 110.112 297.605 110.226 299.864 109.635 C 300.816 109.385 301.88 107.668 301.929 106.576 C 301.958 105.913 300.207 104.704 299.143 104.555 C 296.887 104.241 294.558 104.461 292.26 104.219 C 292.648 102.036 293.034 100.094 293.681 98.133 C 296.896 98.24 299.896 98.489 301.696 95.346 C 301.602 97.899 303.47 98.771 305.033 99.865 Z" style=""/>
  <path fill="#3F4B57" opacity="1.000000" stroke="none" d="M 299.804 132.897 C 298.788 135.331 301.982 135.665 302.123 137.734 C 285.882 137.994 269.631 138.046 253.108 137.842 C 252.449 136.023 252.062 134.461 251.674 132.898 C 253.866 132.826 256.057 132.755 258.424 132.531 C 258.871 132.377 259.141 132.376 259.796 132.532 C 261.232 132.758 262.284 132.886 263.335 132.887 C 275.492 132.902 287.648 132.897 299.804 132.897 Z" style=""/>
  <path fill="#1E2933" opacity="1.000000" stroke="none" d="M 305.234 99.831 C 303.47 98.771 301.602 97.899 301.689 95.153 C 301.532 94.561 301.533 94.304 301.662 93.946 C 301.519 93.522 301.25 93.199 300.827 92.812 C 300.387 92.577 300.101 92.407 299.79 92.078 C 299.395 91.838 299.024 91.755 298.392 91.691 C 296.186 91.908 294.243 92.105 292.131 92.466 C 292.697 97.932 289.016 100.337 285.33 102.739 C 285.321 97.643 285.372 92.546 285.271 87.451 C 285.233 85.542 285.687 84.622 287.83 84.764 C 292.414 85.067 297.068 84.804 301.583 85.491 C 305.194 86.041 308.142 88.176 308.952 92.234 C 309.497 94.962 308.095 98.022 305.234 99.831 Z" style=""/>
  <path fill="#232D36" opacity="1.000000" stroke="none" d="M 79.224 36.881 C 79.53 39.994 81.877 38.959 83.803 39.078 C 83.481 39.961 83.222 40.672 82.941 41.444 C 83.215 41.541 83.504 41.753 83.756 41.715 C 90.294 40.726 96.816 38.985 103.367 38.874 C 112.576 38.718 121.383 41.39 129.664 45.543 C 130.959 46.192 132.276 46.796 133.8 47.441 C 133.833 48.542 133.649 49.622 133.421 50.958 C 122.93 42.789 111.074 39.911 98.494 40.682 C 89.004 41.264 79.713 43.477 71.931 49.589 C 69.585 51.432 67.007 52.469 64.099 51.812 C 62.967 51.557 61.631 50.579 61.156 49.568 C 60.801 48.814 61.341 47.092 62.061 46.466 C 67.038 42.135 72.591 38.732 79.224 36.881 Z" style=""/>
  <path fill="#1E2933" opacity="1.000000" stroke="none" d="M 88.2 134.902 C 83.748 140.77 77.356 141.518 71.636 136.84 C 65.643 131.938 64.236 128.037 66.9 121.746 C 67.807 119.605 69.901 117.968 71.698 116.309 C 72.936 120.15 75.809 120.451 78.876 120.466 C 82.649 120.483 84.696 123.02 85.208 126.683 C 85.603 129.507 87.16 132.168 88.2 134.902 M 83.101 127.486 C 83.164 124.637 81.886 122.354 79.111 122.071 C 77.657 121.923 75.551 123.185 74.576 124.454 C 73 126.502 74.185 129.657 76.435 130.827 C 78.854 132.086 81.327 130.988 83.101 127.486 Z" style=""/>
  <path fill="#141E28" opacity="1.000000" stroke="none" d="M 195.422 110.857 C 195.422 110.857 195.132 110.848 194.987 110.66 C 194.843 110.217 194.844 109.962 194.846 109.707 C 197.298 103.502 203.313 100.441 210.301 102.268 C 211.104 103.763 212.184 104.985 212.12 106.143 C 211.902 110.093 214.931 110.427 217.43 111.444 C 217.331 113.292 217.849 115.546 216.97 116.879 C 216.003 118.347 211.783 116.977 210.419 115.151 C 203.901 120.337 195.704 116.859 195.508 111.058 C 195.526 110.823 195.474 110.84 195.422 110.857 M 209.09 110.253 C 209.241 109.309 209.393 108.365 209.545 107.421 C 208.658 107.324 207.773 107.182 206.884 107.148 C 206.42 107.13 205.829 107.151 205.503 107.413 C 204.445 108.263 202.518 109.445 202.666 110.116 C 203.109 112.125 205.043 112.297 206.837 111.761 C 207.538 111.552 208.13 110.98 209.09 110.253 Z" style=""/>
  <path fill="#1E2933" opacity="1.000000" stroke="none" d="M 326.484 103.893 C 326.5 102.107 326.421 100.314 326.559 98.537 C 326.691 96.831 327.047 95.143 327.375 92.98 C 331.584 92.98 335.937 92.882 340.276 93.083 C 340.954 93.114 341.834 94.407 342.168 95.288 C 343.612 99.101 344.888 102.977 346.084 107.106 C 345.248 107.844 344.553 108.306 343.333 109.117 C 341.777 107.208 340.272 105.349 338.74 103.511 C 338.617 103.363 338.309 103.37 338.087 103.304 C 336.804 100.471 335.52 97.637 333.984 94.244 C 333.984 100.126 333.984 105.508 333.775 111.209 C 332.78 112.043 331.588 113.164 331.286 112.961 C 330.458 112.404 329.802 111.365 329.444 110.384 C 328.658 108.231 328.106 105.993 327.409 103.806 C 327.388 103.743 326.805 103.86 326.484 103.893 M 326.966 101.737 C 327.023 101.737 327.08 101.737 326.966 101.737 Z" style=""/>
  <path fill="#171E25" opacity="1.000000" stroke="none" d="M 66.852 104.114 C 68.318 106.447 72.818 107.868 75.714 107.154 C 77.964 106.599 80.306 106.031 82.59 106.093 C 85.28 106.166 87.952 106.913 90.703 107.602 C 85.035 108.056 79.298 108.361 73.557 108.453 C 71.28 108.49 68.963 108.216 66.731 107.756 C 65.907 107.586 64.986 106.605 64.607 105.769 C 62.931 102.069 61.347 98.321 59.894 94.528 C 55.973 84.287 52.109 74.024 48.281 63.748 C 47.227 60.916 46.406 57.997 45.426 55.136 C 43.656 49.972 39.789 48.644 34.402 50.507 C 32.308 51.231 29.397 50.997 27.357 50.085 C 25.151 49.098 24.275 46.471 24.781 43.867 C 24.917 43.162 25.598 42.564 26.254 41.869 C 27.148 42.87 28.075 43.837 28.434 44.982 C 29.429 48.148 30.522 48.352 33.776 47.828 C 37.034 47.303 40.61 47.337 43.762 48.185 C 45.319 48.604 46.628 51.254 47.365 53.16 C 49.494 58.663 51.192 64.332 53.216 69.878 C 55.345 75.717 57.655 81.489 59.93 87.71 C 60.174 88.425 60.373 88.72 60.572 89.016 C 60.973 90.127 61.373 91.238 61.786 92.751 C 63.482 96.806 65.167 100.46 66.852 104.114 Z" style=""/>
  <path fill="#293742" opacity="1.000000" stroke="none" d="M 112.833 80.34 C 111.048 83.167 109.264 85.993 107.045 88.916 C 105.745 89.29 104.887 89.594 104.012 89.835 C 101.428 90.548 98.857 91.716 96.244 91.829 C 91.289 92.043 86.307 91.647 81.326 91.283 C 80.98 90.636 80.644 90.209 80.308 89.783 C 80.017 90.152 79.725 90.522 79.226 90.893 C 78.739 90.897 78.461 90.898 78.279 90.678 C 80.054 87.838 77.255 86.232 76.931 84.066 C 82.973 84.259 89.015 84.491 95.058 84.611 C 96.384 84.637 97.719 84.26 99.54 84.028 C 102.177 81.681 104.324 79.375 106.672 77.157 C 108.86 78.277 110.846 79.309 112.833 80.34 Z" style=""/>
  <path fill="#16232D" opacity="1.000000" stroke="none" d="M 274.877 106.226 C 274.057 107.405 273.238 108.584 272.066 110.27 C 274.824 110.064 277.209 109.925 279.586 109.696 C 281.962 109.467 283.176 110.17 283.035 112.869 C 282.857 116.299 282.353 117.19 279.499 117.213 C 274.1 117.257 268.7 117.171 263.301 117.253 C 261.574 117.28 260.993 116.737 260.89 114.963 C 260.724 112.097 261.232 109.755 263.63 107.841 C 266.221 105.77 268.571 103.396 271.204 101.29 C 271.135 102.337 270.888 103.247 270.689 103.983 C 272.152 104.767 273.515 105.496 274.877 106.226 M 272.882 107.099 C 272.882 107.099 272.826 107.131 272.882 107.099 Z" style=""/>
  <path fill="#141E28" opacity="1.000000" stroke="none" d="M 226.736 111.442 C 228.702 111.618 230.879 112.855 232.712 109.855 C 231.049 109.185 229.549 108.56 228.034 107.977 C 225.989 107.19 223.705 106.762 221.963 105.549 C 220.837 104.764 220.498 102.85 220.028 101.226 C 222.61 103.107 224.968 102.529 227.324 101.001 C 230.001 101.743 232.703 102.406 235.347 103.251 C 237.947 104.083 239.908 106.09 239.821 108.649 C 239.748 110.804 238.708 113.457 237.174 114.928 C 233.445 118.507 228.854 118.697 224.006 116.373 C 223.367 114.592 222.904 112.982 222.376 111.141 C 224.037 111.256 225.386 111.349 226.736 111.442 Z" style=""/>
  <path fill="#37404B" opacity="1.000000" stroke="none" d="M 110.439 56.871 C 109.578 56.332 108.717 55.792 106.999 54.716 C 107.878 54.343 108.355 53.958 108.819 53.973 C 112.292 54.085 115.805 54.003 119.217 54.544 C 121.268 54.869 123.707 55.709 125.027 57.17 C 130.93 63.706 134.23 71.258 132.06 80.588 C 130.344 79.653 129.125 78.159 127.552 77.369 C 125.583 76.38 125.565 74.935 125.266 73.103 C 124.484 68.319 123.153 63.823 117.824 61.768 C 115.954 61.047 114.561 59.143 112.863 57.897 C 112.175 57.392 111.254 57.204 110.439 56.871 Z" style=""/>
  <path fill="#37404B" opacity="1.000000" stroke="none" d="M 112.993 80.139 C 110.846 79.309 108.86 78.277 106.674 76.872 C 107.524 66.329 100.486 60.798 92.087 61.163 C 92.731 58.851 93.32 56.694 93.91 54.536 C 108.77 56.231 115.046 64.515 112.993 80.139 Z" style=""/>
  <path fill="#28333F" opacity="1.000000" stroke="none" d="M 110.475 57.086 C 111.254 57.204 112.175 57.392 112.863 57.897 C 114.561 59.143 115.954 61.047 117.824 61.768 C 123.153 63.823 124.484 68.319 125.266 73.103 C 125.565 74.935 125.583 76.38 127.552 77.369 C 129.125 78.159 130.344 79.653 131.959 80.828 C 131.678 86.715 128.732 91.318 124.183 95.114 C 122.478 93.977 121.132 92.965 119.761 91.991 C 118.911 91.386 118.021 90.838 117.149 90.264 C 121.049 85.349 123.79 80.191 122.985 73.469 C 122.341 68.088 120.252 65.053 114.87 63.725 C 114.181 63.555 113.439 62.916 113.065 62.29 C 112.111 60.688 111.35 58.972 110.475 57.086 Z" style=""/>
  <path fill="#24323D" opacity="1.000000" stroke="none" d="M 158.682 113.544 C 159.466 113.312 160.251 113.08 161.553 112.696 C 158.25 111.141 157.885 108.933 158.231 106.33 C 158.461 104.59 158.478 102.822 158.392 101.009 C 158.172 100.678 158.149 100.406 158.338 99.882 C 158.807 99.048 159.066 98.465 159.324 97.882 C 161.623 96.993 163.922 96.104 166.877 94.962 C 166.64 97.845 166.43 100.709 166.163 103.568 C 165.304 112.776 160.996 120.774 157.193 128.942 C 156.942 129.481 156.375 129.871 155.773 130.441 C 152.815 130.899 152.537 128.944 153.14 127.236 C 154.191 124.259 155.797 121.483 157.075 118.581 C 157.718 117.119 158.151 115.565 158.68 113.799 C 158.681 113.545 158.682 113.544 158.682 113.544 Z" style=""/>
  <path fill="#192530" opacity="1.000000" stroke="none" d="M 249.346 104.481 C 249.706 105.127 250.067 105.773 250.692 106.894 C 251.594 104.546 252.338 102.61 253.406 100.672 C 254.933 102.427 254.685 105.597 258.122 105.175 C 256.29 109.921 254.459 114.666 252.357 119.329 C 251.597 118.82 251.098 118.015 250.62 118.027 C 248.044 118.095 247.651 116.472 247.272 114.459 C 247.137 113.743 246.001 113.215 245.322 112.601 C 244.336 109.688 243.349 106.775 242.486 103.505 C 244.854 103.593 247.1 104.037 249.346 104.481 Z" style=""/>
  <path fill="#1E2933" opacity="1.000000" stroke="none" d="M 137.869 130.511 C 136.176 136.03 132.07 139.076 126.725 139.767 C 121.511 140.44 116.982 137.99 114.145 133.584 C 111.582 129.603 111.806 125.108 113.841 120.868 C 113.939 123.398 113.253 125.993 113.929 128.164 C 114.568 130.212 116.303 132.43 118.17 133.446 C 120.2 134.552 121.522 132.457 122.434 130.613 C 127.379 132.444 130.247 130.042 129.548 125.02 C 129.461 124.389 130.078 123.661 130.576 123.091 C 131.062 123.727 131.381 124.234 131.613 124.778 C 132.73 127.382 133.823 129.996 135.055 132.915 C 136.428 131.742 137.149 131.126 137.869 130.511 Z" style=""/>
  <path fill="#16232D" opacity="1.000000" stroke="none" d="M 326.394 104.101 C 326.805 103.86 327.388 103.743 327.409 103.806 C 328.106 105.993 328.658 108.231 329.444 110.384 C 329.802 111.365 330.458 112.404 331.286 112.961 C 331.588 113.164 332.78 112.043 333.762 111.48 C 333.975 112.489 334.239 113.625 333.933 114.578 C 333.677 115.375 332.602 116.623 332.155 116.52 C 330.377 116.11 327.831 118.922 326.809 115.118 C 323.731 118.064 320.219 118.47 316.756 116.621 C 313.416 114.838 311.504 111.908 312.188 107.534 C 313.342 107.875 314.304 108.541 315.528 109.389 C 316.357 108.89 317.62 108.13 318.882 107.37 C 319.638 108.419 320.171 109.869 321.193 110.437 C 323.77 111.871 325.919 110.348 325.929 107.423 C 325.932 106.385 326.171 105.347 326.394 104.101 Z" style=""/>
  <path fill="#1D2832" opacity="1.000000" stroke="none" d="M 217.44 111.172 C 214.931 110.427 211.902 110.093 212.12 106.143 C 212.184 104.985 211.104 103.763 210.519 102.358 C 209.374 98.745 209.105 98.612 203.109 98.555 C 201.908 98.193 201.082 97.966 200.257 97.739 C 200.698 97.113 201.401 96.535 201.528 95.85 C 201.834 94.19 205.034 94.777 204.142 92.333 C 206.61 92.542 209.14 92.476 211.532 93.021 C 215.375 93.897 217.437 96.837 217.458 100.813 C 217.476 104.175 217.455 107.538 217.44 111.172 Z" style=""/>
  <path fill="#3A4551" opacity="1.000000" stroke="none" d="M 192.619 71.014 C 191.815 71.885 191.171 73.002 190.355 73.144 C 183.977 74.261 178.993 77.171 176.662 83.288 C 174.532 83.288 172.743 83.288 170.627 83.288 C 170.627 82.65 170.318 81.658 170.675 81.067 C 174.767 74.288 179.505 68.31 188.23 67.428 C 191.367 67.11 192.652 67.976 192.619 71.014 Z" style=""/>
  <path fill="#5F646E" opacity="1.000000" stroke="none" d="M 336.189 67.472 C 344.333 67.421 351.034 70.042 355.007 78.083 C 355.646 82.716 354.97 83.837 351.565 84.167 C 350.268 78.607 346.118 76.028 341.188 74.314 C 339.471 73.717 337.691 73.3 335.807 72.385 C 335.846 70.47 336.018 68.971 336.189 67.472 Z" style=""/>
  <path fill="#28333F" opacity="1.000000" stroke="none" d="M 88.372 134.772 C 87.16 132.168 85.603 129.507 85.208 126.683 C 84.696 123.02 82.649 120.483 78.876 120.466 C 75.809 120.451 72.936 120.15 71.917 116.291 C 72.187 115.872 72.484 115.679 73.073 115.593 C 73.715 115.407 74.066 115.115 74.417 114.823 C 74.417 114.823 74.402 114.808 74.539 114.742 C 74.835 114.558 74.954 114.41 75.035 114.23 C 84.91 110.862 93.182 119.975 91.177 129.803 C 90.827 131.523 89.447 133.034 88.372 134.772 Z" style=""/>
  <path fill="#28333F" opacity="1.000000" stroke="none" d="M 138.815 102.174 C 137.086 100.039 135.536 97.792 133.8 95.445 C 134.379 94.408 135.145 93.47 136.194 92.231 C 136.96 90.284 137.674 88.667 137.879 86.989 C 138.298 83.558 138.443 80.093 138.732 76.237 C 141.342 78.054 143.372 79.469 145.404 80.883 C 145.196 84.71 145.235 88.57 144.711 92.353 C 144.168 96.272 141.928 99.429 138.815 102.174 Z" style=""/>
  <path fill="#192530" opacity="1.000000" stroke="none" d="M 227.322 100.768 C 224.968 102.529 222.61 103.107 220.041 101 C 219.825 100.377 219.818 99.764 220.019 98.872 C 220.465 97.849 220.701 97.104 220.937 96.36 C 224.378 92.194 231.243 91.009 236.323 93.605 C 236.932 93.916 237.826 93.667 238.865 93.511 C 239.298 93.24 239.409 93.101 239.475 92.926 C 239.738 92.916 240.001 92.906 240.467 93.142 C 240.745 93.762 240.848 94.134 240.891 94.513 C 241.204 97.257 241.506 100.002 241.811 102.747 C 240.964 100.643 240.116 98.539 239.203 96.273 C 237.96 97.594 236.701 98.933 235.47 100.242 C 229.748 97.939 228.522 97.989 227.322 100.768 Z" style=""/>
  <path fill="#16232D" opacity="1.000000" stroke="none" d="M 194.574 109.704 C 194.844 109.962 194.843 110.217 194.842 110.664 C 194.756 118.127 195.715 117.181 188.555 117.201 C 185 117.212 181.444 116.972 177.668 116.744 C 177.448 115.029 177.317 113.399 177.508 111.808 C 177.597 111.072 178.314 110.412 178.988 109.702 C 184.254 109.69 189.278 109.696 194.574 109.704 Z" style=""/>
  <path fill="#293742" opacity="1.000000" stroke="none" d="M 137.979 130.276 C 137.149 131.126 136.428 131.742 135.055 132.915 C 133.823 129.996 132.73 127.382 131.613 124.778 C 131.381 124.234 131.062 123.727 130.469 122.901 C 128.371 121.902 126.587 121.207 124.559 120.493 C 123.191 119.003 122.066 117.532 121.013 115.897 C 121.244 115.414 121.403 115.095 121.564 114.777 C 126.649 112.254 130.867 114.406 134.598 117.589 C 138.413 120.845 139.404 125.193 137.979 130.276 Z" style=""/>
  <path fill="#5F646E" opacity="1.000000" stroke="none" d="M 273.105 73.562 C 266.909 73.428 260.713 73.294 254.251 72.892 C 253.805 70.953 253.625 69.282 253.444 67.611 C 259.633 67.565 265.822 67.52 272.291 67.64 C 272.948 67.857 273.325 67.908 273.703 68.198 C 273.505 70.145 273.305 71.853 273.105 73.562 Z" style=""/>
  <path opacity="1.000000" stroke="none" d="M 164.205 49.567 C 164.205 49.567 164.275 49.74 164.33 50.008 C 164.574 50.406 164.763 50.536 164.951 50.665 C 164.951 50.665 164.97 50.653 164.915 50.889 C 165.422 52.311 165.985 53.498 166.546 54.685 C 166.546 54.685 166.642 54.86 166.668 55.148 C 166.75 55.556 166.808 55.676 166.866 55.795 C 168.025 58.046 169.185 60.297 170.471 62.795 C 168.333 63.432 166.67 64.606 165.574 61.601 C 164.663 59.107 162.114 59.578 160.146 59.81 C 159.08 59.937 157.71 60.849 157.222 61.792 C 156.385 63.414 155.572 64.334 153.762 63.459 C 151.607 62.418 153.355 61.268 153.79 60.239 C 154.909 57.599 156.123 54.999 157.52 51.989 C 157.856 51.035 157.971 50.473 158.086 49.911 C 158.086 49.911 158.13 49.733 158.315 49.499 C 158.556 48.849 158.612 48.433 158.668 48.018 C 158.668 48.018 158.712 47.834 158.968 47.602 C 161.682 46.292 163.026 47.744 164.205 49.567 M 163.167 56.466 C 162.606 54.731 162.044 52.997 161.293 50.674 C 160.255 52.935 159.558 54.455 158.803 56.1 C 160.192 56.258 161.412 56.397 163.167 56.466 Z" style="fill: rgb(24, 89, 177);"/>
  <path fill="#192530" opacity="1.000000" stroke="none" d="M 338.085 103.526 C 338.309 103.37 338.617 103.363 338.74 103.511 C 340.272 105.349 341.777 107.208 343.333 109.117 C 344.553 108.306 345.248 107.844 346.139 107.323 C 347.026 105.877 347.716 104.49 348.718 102.921 C 351.812 102.699 351.925 105.345 353.171 106.85 C 351.742 110.446 350.313 114.042 348.606 117.645 C 345.964 118.481 344.282 117.72 343.367 115.497 C 343.108 114.866 342.623 114.328 342.241 113.748 C 340.855 110.415 339.469 107.082 338.085 103.526 Z" style=""/>
  <path opacity="1.000000" stroke="none" d="M 78.183 90.9 C 78.461 90.898 78.739 90.897 79.361 91.055 C 80.248 91.311 80.792 91.408 81.336 91.504 C 86.307 91.647 91.289 92.043 96.244 91.829 C 98.857 91.716 101.428 90.548 104.012 89.835 C 104.887 89.594 105.745 89.29 106.858 89.016 C 104.095 92.168 100.393 94.008 96.057 93.985 C 88.871 93.95 81.688 93.582 74.502 93.44 C 72.976 93.409 71.443 93.751 69.378 93.981 C 70.278 95.838 70.978 97.281 71.773 98.924 C 69.216 99.612 68.032 101.555 67.024 103.978 C 65.167 100.46 63.482 96.806 61.812 92.972 C 62.884 93.852 63.87 95.002 65.028 95.94 C 65.697 96.482 66.644 96.683 67.267 96.951 C 67.6 94.771 67.859 93.08 68.411 91.147 C 71.865 90.904 75.024 90.902 78.183 90.9 Z" style="fill: rgba(29, 40, 50, 0.918);"/>
  <path fill="#505A65" opacity="1.000000" stroke="none" d="M 273.374 73.613 C 273.305 71.853 273.505 70.145 273.818 68.145 C 274.08 67.765 274.19 67.642 274.26 67.482 C 280.076 67.464 285.893 67.446 291.986 67.704 C 292.311 68.448 292.358 68.915 292.406 69.383 C 292.313 70.518 292.219 71.653 292.077 73.384 C 285.88 73.479 279.762 73.572 273.374 73.613 Z" style=""/>
  <path fill="#192530" opacity="1.000000" stroke="none" d="M 285.32 102.959 C 289.016 100.337 292.697 97.932 292.279 92.637 C 292.871 94.48 293.146 96.316 293.42 98.153 C 293.034 100.094 292.648 102.036 292.254 104.485 C 292.25 106.756 292.253 108.519 292.256 110.282 C 291.91 111.969 291.563 113.656 291.099 115.918 C 290.028 116.028 288.083 116.228 286.009 116.547 C 285.695 114.513 285.509 112.36 285.455 109.855 C 285.507 109.19 285.427 108.876 285.347 108.562 C 285.34 108.294 285.333 108.026 285.477 107.42 C 285.53 106.221 285.432 105.359 285.333 104.498 C 285.325 104.058 285.317 103.618 285.32 102.959 Z" style=""/>
  <path fill="#28333F" opacity="1.000000" stroke="none" d="M 78.164 55.821 C 78.442 55.798 78.721 55.775 79.255 55.956 C 80.121 56.032 80.731 55.905 81.342 55.777 C 83.685 55.357 86.028 54.938 88.591 54.726 C 86.491 56.957 87.563 59.555 87.535 62.16 C 87.293 62.834 87.131 63.326 86.969 63.819 C 85.201 65.429 83.434 67.039 81.323 68.599 C 79.78 68.579 78.545 68.441 77.389 68.681 C 75.735 69.025 74.138 69.646 72.545 69.925 C 73.603 67.336 74.633 64.969 75.688 62.379 C 76.164 59.903 80.023 58.968 78.164 55.821 Z" style=""/>
  <path fill="#303B45" opacity="1.000000" stroke="none" d="M 274.288 85.385 C 278.137 85.415 280.599 87.685 282.111 90.834 C 284.007 94.781 282.703 98.321 279.479 101.45 C 277.886 99.398 276.66 97.289 275.435 95.18 C 275.437 94.927 275.44 94.674 275.574 94.13 C 275.426 93.521 275.147 93.203 274.868 92.885 C 274.587 92.699 274.306 92.514 273.863 92.03 C 273.343 91.353 273.014 90.942 272.624 90.601 C 271.887 89.958 270.457 89.319 270.488 88.743 C 270.562 87.388 271.055 85.82 273.156 86.175 C 273.48 86.229 273.908 85.664 274.288 85.385 Z" style=""/>
  <path fill="#1E2C36" opacity="1.000000" stroke="none" d="M 318.899 107.1 C 317.62 108.13 316.357 108.89 315.528 109.389 C 314.304 108.541 313.342 107.875 312.202 107.282 C 312.011 103.416 312.078 99.475 311.962 95.539 C 311.861 92.109 314.316 93.095 316.166 92.874 C 318.283 92.622 319.077 93.382 318.978 95.589 C 318.809 99.329 318.921 103.082 318.899 107.1 Z" style=""/>
  <path fill="#24323D" opacity="1.000000" stroke="none" d="M 120.942 116.061 C 122.066 117.532 123.191 119.003 124.441 120.673 C 120.518 124.463 120.058 126.365 122.233 130.521 C 121.522 132.457 120.2 134.552 118.17 133.446 C 116.303 132.43 114.568 130.212 113.929 128.164 C 113.253 125.993 113.939 123.398 114.029 120.726 C 114.045 120.358 114.063 120.252 114.215 119.913 C 114.491 119.561 114.596 119.413 114.664 119.239 C 114.794 119.073 114.924 118.906 115.424 118.66 C 117.509 117.741 119.226 116.9 120.942 116.061 Z" style=""/>
  <path fill="#303B45" opacity="1.000000" stroke="none" d="M 116.932 90.301 C 118.021 90.838 118.911 91.386 119.761 91.991 C 121.132 92.965 122.478 93.977 123.967 95.147 C 123.293 96.248 122.487 97.175 121.612 98.438 C 121.542 98.773 121.537 99.049 121.537 99.049 C 121.537 99.049 121.239 99.056 120.947 98.913 C 118.005 99.17 115.36 99.857 112.706 99.895 C 109.795 99.937 106.876 99.381 103.748 99.084 C 103.046 98.869 102.557 98.657 102.068 98.445 C 106.95 95.742 111.832 93.04 116.932 90.301 Z" style=""/>
  <path fill="#28303B" opacity="1.000000" stroke="none" d="M 96.181 78.785 C 91.854 80.818 88.909 80.286 87.269 77.373 C 85.676 74.544 86.262 72.049 89.076 69.673 C 91.235 67.849 93.932 67.838 96.204 69.644 C 98.49 71.461 99.067 74.554 97.563 77.199 C 97.261 77.73 96.769 78.152 96.181 78.785 Z" style=""/>
  <path fill="#505A65" opacity="1.000000" stroke="none" d="M 253.176 67.547 C 253.625 69.282 253.805 70.953 253.995 72.852 C 248.758 73.119 243.51 73.157 238.013 72.937 C 238.079 70.854 236.196 68.307 239.481 67.461 C 243.957 67.469 248.433 67.476 253.176 67.547 Z" style=""/>
  <path fill="#1E2C36" opacity="1.000000" stroke="none" d="M 258.263 105.029 C 254.685 105.597 254.933 102.427 253.571 100.546 C 253.874 98.561 254.312 96.694 254.805 94.842 C 255.319 92.91 256.816 92.736 258.464 92.892 C 260.552 93.088 262.516 93.026 263.582 90.724 C 263.373 92.677 263.786 93.946 265.741 94.682 C 266.285 94.887 266.439 96.13 266.772 96.896 C 265.111 96.896 263.451 96.896 261.943 96.896 C 260.865 99.328 259.634 102.105 258.263 105.029 Z" style=""/>
  <path fill="#1E2933" opacity="1.000000" stroke="none" d="M 75.663 62.601 C 74.633 64.969 73.603 67.336 72.389 69.863 C 71.908 69.866 71.611 69.712 71.314 69.556 C 72.113 67.879 72.911 66.202 73.744 64.453 C 70.989 64.453 68.465 64.308 65.966 64.495 C 63.706 64.665 62.44 63.778 61.724 61.71 C 60.917 59.377 59.992 57.083 58.86 54.089 C 62.524 54.432 66.012 54.759 69.751 55.351 C 69.092 60.132 69.631 61.031 73.881 62.106 C 74.478 62.258 75.069 62.436 75.663 62.601 Z" style=""/>
  <path opacity="1.000000" stroke="none" d="M 162.875 88.101 C 163.448 87.93 163.831 87.838 164.214 87.745 C 164.285 87.883 164.356 88.021 164.427 88.159 C 163.658 88.617 162.927 89.162 162.112 89.519 C 159.404 90.708 158.701 90.275 158.775 87.357 C 158.85 84.438 159.089 81.522 159.219 78.603 C 159.255 77.795 159.158 76.98 159.112 75.915 C 149.748 76.515 142.847 72.674 140.058 63.892 C 137.791 56.754 138.697 49.18 144.128 43.065 C 143.552 44.438 142.869 46.175 142.084 47.417 C 138.868 52.506 139.158 58.092 140.762 63.314 C 141.628 66.132 143.784 68.374 146.103 70.552 C 146.66 71.076 147.87 72.348 150.931 72.71 C 154.441 74.906 154.108 74.574 157.877 74.05 C 159.591 73.812 161.212 77.323 160.917 79.64 C 160.632 81.892 160.563 84.201 160.727 86.461 C 160.771 87.078 162 87.609 162.875 88.101 Z" fill="#1959B1" style=""/>
  <path fill="#171E25" opacity="1.000000" stroke="none" d="M 342.148 113.918 C 342.623 114.328 343.108 114.866 343.367 115.497 C 344.282 117.72 345.964 118.481 348.443 117.772 C 346.862 124.074 344.463 125.4 335.164 123.266 C 335.352 121.885 335.299 120.338 335.846 119.043 C 336.142 118.341 337.427 117.756 338.322 117.665 C 340.608 117.434 342.521 117.08 342.148 113.918 Z" style=""/>
  <path fill="#1E2933" opacity="1.000000" stroke="none" d="M 353.336 106.727 C 351.925 105.345 351.812 102.699 348.816 102.736 C 349.304 100.472 350.13 98.242 350.674 95.945 C 351.241 93.553 352.534 92.567 354.979 92.877 C 356.191 93.031 357.439 92.904 359.525 92.904 C 357.364 97.817 355.433 102.21 353.336 106.727 Z" style=""/>
  <path fill="#141E28" opacity="1.000000" stroke="none" d="M 245.18 112.711 C 246.001 113.215 247.137 113.743 247.272 114.459 C 247.651 116.472 248.044 118.095 250.62 118.027 C 251.098 118.015 251.597 118.82 252.184 119.443 C 250.293 123.826 246.986 124.924 242.616 124.013 C 240.405 123.552 239.311 122.738 240.054 120.336 C 240.33 119.443 240.315 118.46 240.43 117.538 C 246.72 116.516 246.72 116.516 245.18 112.711 Z" style=""/>
  <path fill="#303B45" opacity="1.000000" stroke="none" d="M 71.244 69.704 C 71.611 69.712 71.908 69.866 72.361 70.085 C 74.138 69.646 75.735 69.025 77.389 68.681 C 78.545 68.441 79.78 68.579 81.151 68.719 C 80.904 71.42 80.348 73.938 80.113 76.484 C 79.959 78.152 79.38 78.964 77.679 78.931 C 75.508 78.889 73.336 78.9 70.886 78.566 C 70.602 76.001 70.599 73.759 70.595 71.518 C 70.788 70.963 70.981 70.407 71.244 69.704 Z" style=""/>
  <path fill="#303B45" opacity="1.000000" stroke="none" d="M 239.318 67.281 C 236.196 68.307 238.079 70.854 237.761 72.917 C 235.631 73.311 233.506 73.465 231.037 73.401 C 229.57 72.984 228.445 72.786 227.314 72.378 C 226.159 70.403 225.009 68.638 223.859 66.873 C 228.957 66.949 234.056 67.025 239.318 67.281 Z" style=""/>
  <path fill="#16232D" opacity="1.000000" stroke="none" d="M 204.149 65.651 C 209.032 66.632 209.987 68.401 207.651 71.854 C 205.897 74.446 203.212 72.865 200.972 73.053 C 200.273 73.111 199.173 71.896 198.751 71.025 C 197.775 69.012 198.66 67.451 200.6 66.583 C 201.635 66.12 202.802 65.952 204.149 65.651 Z" style=""/>
  <path fill="#1E2C36" opacity="1.000000" stroke="none" d="M 241.87 102.879 C 241.506 100.002 241.204 97.257 240.891 94.513 C 240.848 94.134 240.745 93.762 240.665 93.15 C 240.852 92.904 241.05 92.922 241.237 92.884 C 244.598 92.191 246.313 93.603 247.005 96.932 C 247.509 99.356 248.536 101.67 249.338 104.257 C 247.1 104.037 244.854 103.593 242.476 103.277 C 242.165 103.316 242.027 103.185 241.87 102.879 Z" style=""/>
  <path fill="#303B45" opacity="1.000000" stroke="none" d="M 300.076 132.895 C 287.648 132.897 275.492 132.902 263.335 132.887 C 262.284 132.886 261.232 132.758 259.998 132.538 C 262.62 132.19 265.424 131.829 268.229 131.821 C 284.195 131.775 300.161 131.813 316.397 131.889 C 315.749 132.266 314.836 132.827 313.913 132.847 C 309.392 132.942 304.869 132.892 300.076 132.895 Z" style=""/>
  <path fill="#192530" opacity="1.000000" stroke="none" d="M 87.234 63.832 C 87.131 63.326 87.293 62.834 87.779 62.127 C 89.412 61.714 90.722 61.515 92.032 61.316 C 100.486 60.798 107.524 66.329 106.474 76.783 C 104.324 79.375 102.177 81.681 99.801 83.989 C 101.819 81.648 103.59 79.18 104.016 75.717 C 105.155 66.442 96.599 62.115 89.319 63.4 C 88.705 63.509 88.105 63.695 87.234 63.832 Z" style=""/>
  <path fill="#24323D" opacity="1.000000" stroke="none" d="M 266.997 96.904 C 266.439 96.13 266.285 94.887 265.741 94.682 C 263.786 93.946 263.373 92.677 263.783 90.65 C 264.095 86.901 269.908 83.899 274.127 85.224 C 273.908 85.664 273.48 86.229 273.156 86.175 C 271.055 85.82 270.562 87.388 270.488 88.743 C 270.457 89.319 271.887 89.958 272.624 90.601 C 273.014 90.942 273.343 91.353 273.719 91.94 C 270.465 91.406 269.132 92.268 268.437 95.392 C 268.31 95.961 267.641 96.408 266.997 96.904 Z" style=""/>
  <path fill="#3A4551" opacity="1.000000" stroke="none" d="M 251.403 132.896 C 252.062 134.461 252.449 136.023 252.839 137.807 C 252.58 138.057 252.319 138.086 251.694 137.948 C 249.71 137.877 248.089 137.973 246.469 138.069 C 246.026 138.08 245.583 138.092 244.757 137.936 C 243.328 137.693 242.281 137.617 241.234 137.541 C 239.449 134.492 240.274 132.917 243.676 132.901 C 246.161 132.889 248.646 132.896 251.403 132.896 Z" style=""/>
  <path fill="#24323D" opacity="1.000000" stroke="none" d="M 78.279 90.678 C 75.024 90.902 71.865 90.904 68.412 90.908 C 67.331 90.019 66.543 89.13 65.755 88.24 C 67.016 87.502 68.446 85.965 69.499 86.191 C 71.708 86.665 73.07 86.066 74.363 84.267 C 75.081 84.041 75.754 84.027 76.68 84.039 C 77.255 86.232 80.054 87.838 78.279 90.678 Z" style=""/>
  <path fill="#141E28" opacity="1.000000" stroke="none" d="M 297.861 72.356 C 297.008 70.861 296.325 69.515 295.386 67.665 C 297.753 67.124 299.723 66.519 301.738 66.259 C 303.72 66.004 305.989 66.847 305.761 68.851 C 305.585 70.395 303.69 72.1 302.135 72.998 C 301.18 73.55 299.426 72.717 297.861 72.356 Z" style=""/>
  <path fill="#171E25" opacity="1.000000" stroke="none" d="M 145.424 80.649 C 143.372 79.469 141.342 78.054 138.732 76.237 C 138.443 80.093 138.298 83.558 137.879 86.989 C 137.674 88.667 136.96 90.284 136.279 92.045 C 135.868 88.672 135.428 85.178 135.506 81.696 C 135.581 78.326 136.189 74.969 136.562 71.623 C 136.71 71.586 136.869 71.506 136.906 71.544 C 139.758 74.495 142.601 77.455 145.424 80.649 Z" style=""/>
  <path fill="#192530" opacity="1.000000" stroke="none" d="M 102.367 107.858 C 103.409 105.043 106.173 106.212 108.094 106.147 C 113.946 105.947 119.821 106.537 125.688 106.555 C 128.394 106.563 131.102 105.955 133.964 105.773 C 130.01 109.246 125.112 108.498 120.406 108.449 C 114.49 108.387 108.577 108.078 102.367 107.858 Z" style=""/>
  <path fill="#141E28" opacity="1.000000" stroke="none" d="M 320.085 68.034 C 319.608 72.1 317.708 73.694 314.049 72.575 C 312.82 72.2 311.611 70.194 311.329 68.751 C 311.074 67.44 311.979 65.984 314.113 66.148 C 316.249 66.313 318.658 65.109 320.085 68.034 Z" style=""/>
  <path fill="#192530" opacity="1.000000" stroke="none" d="M 221.538 73.115 C 220.2 73.128 218.836 73.312 217.53 73.112 C 215.604 72.818 214.524 71.589 214.565 69.544 C 214.607 67.492 215.606 66.245 217.696 66.264 C 219.202 66.278 220.706 66.603 222.445 67.043 C 222.298 69.236 221.918 71.175 221.538 73.115 Z" style=""/>
  <path fill="#24323D" opacity="1.000000" stroke="none" d="M 275.294 95.327 C 276.66 97.289 277.886 99.398 279.302 101.54 C 278.065 103.064 276.64 104.554 275.046 106.136 C 273.515 105.496 272.152 104.767 270.689 103.983 C 270.888 103.247 271.135 102.337 271.385 101.214 C 272.046 100.282 272.704 99.562 273.655 98.695 C 274.11 98.432 274.221 98.28 274.284 98.091 C 274.573 97.218 274.863 96.346 275.294 95.327 Z" style=""/>
  <path fill="#1D2832" opacity="1.000000" stroke="none" d="M 103.533 129.223 C 102.122 129.252 100.914 129.474 99.841 129.19 C 98.772 128.906 97.337 128.325 96.983 127.486 C 96.609 126.599 97.021 125.052 97.624 124.152 C 98.81 122.379 103.88 122.456 105.313 124.069 C 107.042 126.018 106.665 127.292 103.533 129.223 Z" style=""/>
  <path fill="#293742" opacity="1.000000" stroke="none" d="M 171.15 121.526 C 173.901 123.317 176.913 125.048 177.429 128.919 C 177.514 129.551 178.49 130.02 178.9 130.662 C 179.633 131.81 180.249 133.032 180.901 134.454 C 174.829 132.492 172.347 127.592 171.15 121.526 Z" style=""/>
  <path fill="#303B45" opacity="1.000000" stroke="none" d="M 75.688 62.379 C 75.069 62.436 74.478 62.258 73.881 62.106 C 69.631 61.031 69.092 60.132 70.02 55.385 C 71.094 55.152 72.149 55.15 73.507 55.343 C 74.216 55.597 74.622 55.656 75.029 55.716 C 75.901 55.728 76.773 55.739 77.905 55.786 C 80.023 58.968 76.164 59.903 75.688 62.379 Z" style=""/>
  <path opacity="1.000000" stroke="none" d="M 175.262 62.907 C 173.502 63.42 172.249 63.743 172.263 61.517 C 172.293 57.145 172.488 52.773 172.657 48.402 C 172.666 48.181 172.694 45.785 174.693 47.421 C 175.517 49.511 175.377 51.691 175.374 54.41 C 175.529 57.783 175.326 60.102 175.262 62.907 Z" style="fill: rgb(24, 89, 177);"/>
  <path opacity="1.000000" stroke="none" d="M 179.735 47.45 C 179.63 46.218 180.559 45.392 181.514 45.175 C 182.619 44.925 183.864 46.356 183.701 47.517 C 183.371 49.865 182.979 54.126 182.433 55.794 C 182.063 56.922 181.41 57.382 180.913 55.765 C 180.598 54.743 179.886 48.682 179.735 47.45 Z" style="fill: rgb(24, 89, 177);"/>
  <path fill="#505A65" opacity="1.000000" stroke="none" d="M 351.537 84.395 C 354.97 83.837 355.646 82.716 355.027 78.28 C 356.292 81.197 357.508 84.346 358.73 87.51 C 353.51 89.228 352.266 88.645 351.537 84.395 Z" style=""/>
  <path fill="#303B45" opacity="1.000000" stroke="none" d="M 92.087 61.163 C 90.722 61.515 89.412 61.714 87.857 61.946 C 87.563 59.555 86.491 56.957 88.844 54.719 C 90.369 54.489 91.862 54.475 93.632 54.499 C 93.32 56.694 92.731 58.851 92.087 61.163 Z" style=""/>
  <path fill="#141E28" opacity="1.000000" stroke="none" d="M 203.937 92.406 C 205.034 94.777 201.834 94.19 201.528 95.85 C 201.401 96.535 200.698 97.113 200.257 97.739 C 201.082 97.966 201.908 98.193 202.851 98.561 C 201.985 99.245 201.002 99.788 199.708 100.502 C 198.454 98.957 197.227 97.446 195.58 95.418 C 198.62 94.322 201.176 93.4 203.937 92.406 Z" style=""/>
  <path fill="#293742" opacity="1.000000" stroke="none" d="M 203.235 138.518 C 203.498 138.151 204.025 137.584 204.556 137.58 C 211.759 137.529 218.962 137.548 226.165 137.583 C 226.492 137.585 226.818 137.898 227.227 138.262 C 219.373 138.499 211.436 138.54 203.235 138.518 Z" style=""/>
  <path opacity="1.000000" stroke="none" d="M 152.362 36.615 C 153.212 36.19 154.27 35.615 155.331 35.606 C 164.842 35.535 174.354 35.537 183.864 35.576 C 186.971 35.589 189.757 36.487 192.376 39.611 C 190.541 39.095 189.045 39.13 188.371 38.403 C 185.887 35.722 182.774 36.197 179.712 36.195 C 173.546 36.19 167.378 36.138 161.212 36.217 C 158.33 36.254 155.451 36.55 152.362 36.615 Z" style="fill: rgb(24, 89, 177);"/>
  <path fill="#171E25" opacity="1.000000" stroke="none" d="M 226.619 111.286 C 225.386 111.349 224.037 111.256 222.376 111.141 C 222.904 112.982 223.367 114.592 223.834 116.419 C 222.111 115.761 220.382 114.884 218.225 113.789 C 219.932 111.793 221.161 110.358 222.408 108.901 C 223.809 109.664 225.156 110.396 226.619 111.286 Z" style=""/>
  <path fill="#5F646E" opacity="1.000000" stroke="none" d="M 357.115 118.735 C 355.108 119.324 353.226 119.718 351.116 120.117 C 350.841 115.706 351.068 115.571 357.844 116.262 C 357.633 117.056 357.436 117.799 357.115 118.735 Z" style=""/>
  <path fill="#464E59" opacity="1.000000" stroke="none" d="M 70.373 71.522 C 70.599 73.759 70.602 76.001 70.594 78.515 C 68.38 79.211 66.732 78.772 66.347 76.19 C 65.904 73.215 67.999 72.357 70.373 71.522 Z" style=""/>
  <path fill="#303B45" opacity="1.000000" stroke="none" d="M 331.732 70.799 C 331.732 70.906 331.732 71.013 331.507 71.254 C 329.189 71.221 327.096 71.053 325.002 70.886 C 323.616 68.19 324.078 67.205 327.412 66.471 C 327.916 69.107 328.912 70.542 331.697 69.841 C 331.753 70.282 331.743 70.541 331.732 70.799 Z" style=""/>
  <path fill="#24323D" opacity="1.000000" stroke="none" d="M 221.769 73.13 C 221.918 71.175 222.298 69.236 222.686 67.064 C 222.953 66.827 223.212 66.822 223.665 66.845 C 225.009 68.638 226.159 70.403 227.082 72.38 C 225.853 72.77 224.852 72.949 223.85 73.128 C 223.233 73.134 222.616 73.14 221.769 73.13 Z" style=""/>
  <path opacity="1.000000" stroke="none" d="M 331.941 70.805 C 331.743 70.541 331.753 70.282 331.728 69.644 C 331.896 68.644 332.098 68.022 332.3 67.401 C 333.482 67.356 334.664 67.312 336.018 67.37 C 336.018 68.971 335.846 70.47 335.679 72.203 C 334.507 71.894 333.329 71.353 331.941 70.805 Z" style="fill: rgb(95, 100, 110);"/>
  <path opacity="1.000000" stroke="none" d="M 180.616 59.639 C 181.625 57.804 182.398 58.669 183.029 59.557 C 183.567 60.314 183.671 61.34 182.95 62.511 C 182.349 63.488 181.535 63.585 180.924 62.397 C 180.311 61.139 180.344 61.202 180.616 59.639 Z" style="fill: rgb(24, 89, 177);"/>
  <path fill="#192530" opacity="1.000000" stroke="none" d="M 121.678 99.223 C 121.537 99.049 121.542 98.773 121.544 98.635 C 125.012 100.054 128.088 98.594 131.414 97.234 C 131.583 97.816 131.715 98.818 131.422 98.963 C 128.31 100.506 125.157 102.556 121.678 99.223 Z" style=""/>
  <path fill="#1D2832" opacity="1.000000" stroke="none" d="M 332.172 67.221 C 332.098 68.022 331.896 68.644 331.662 69.461 C 328.912 70.542 327.916 69.107 327.628 66.482 C 329.091 66.525 330.567 66.784 332.172 67.221 Z" style=""/>
  <path fill="#1D2832" opacity="1.000000" stroke="none" d="M 101.776 98.444 C 102.557 98.657 103.046 98.869 103.749 99.292 C 103.961 99.781 103.96 100.06 103.959 100.338 C 100.333 100.055 96.707 99.773 92.888 99.331 C 95.624 98.93 98.554 98.687 101.776 98.444 Z" style=""/>
  <path fill="#3F4B57" opacity="1.000000" stroke="none" d="M 325.036 71.131 C 327.096 71.053 329.189 71.221 331.48 71.411 C 330.884 73.921 328.761 73.142 327.122 73.076 C 326.416 73.048 325.752 71.974 325.036 71.131 Z" style=""/>
  <path fill="#192530" opacity="1.000000" stroke="none" d="M 224.022 73.293 C 224.852 72.949 225.853 72.77 227.087 72.589 C 228.445 72.786 229.57 72.984 230.778 73.372 C 228.639 73.527 226.417 73.492 224.022 73.293 Z" style=""/>
  <path fill="#293742" opacity="1.000000" stroke="none" d="M 181.392 127.518 C 178.432 128.266 178.012 127.812 178.619 124.39 C 179.525 125.233 180.42 126.288 181.392 127.518 Z" style=""/>
  <path fill="#293742" opacity="1.000000" stroke="none" d="M 182.202 135.962 C 183.212 135.833 184.377 135.692 185.418 135.987 C 186.134 136.189 186.678 136.994 187.31 137.73 C 185.648 137.332 183.976 136.734 182.202 135.962 Z" style=""/>
  <path fill="#293742" opacity="1.000000" stroke="none" d="M 189.282 138.083 C 190.97 135.868 192.827 137.812 194.777 138.338 C 193.068 138.394 191.293 138.255 189.282 138.083 Z" style=""/>
  <path fill="#232D36" opacity="1.000000" stroke="none" d="M 84.85 34.955 C 84.151 36.996 82.639 37.75 80.263 36.902 C 81.57 36.186 83.082 35.564 84.85 34.955 Z" style=""/>
  <path fill="#1E2933" opacity="1.000000" stroke="none" d="M 121.013 115.897 C 119.226 116.9 117.509 117.741 115.568 118.591 C 117.261 117.335 119.178 116.069 121.329 114.79 C 121.403 115.095 121.244 115.414 121.013 115.897 Z" style=""/>
  <path fill="#293742" opacity="1.000000" stroke="none" d="M 246.639 138.217 C 248.089 137.973 249.71 137.877 251.497 137.934 C 250.046 138.18 248.427 138.272 246.639 138.217 Z" style=""/>
  <path fill="#293742" opacity="1.000000" stroke="none" d="M 241.234 137.691 C 242.281 137.617 243.328 137.693 244.536 137.917 C 243.65 138.176 242.603 138.286 241.394 138.269 C 241.233 138.04 241.234 137.94 241.234 137.691 Z" style=""/>
  <path fill="#171E25" opacity="1.000000" stroke="none" d="M 32.132 39.135 C 30.99 39.52 29.688 39.744 28.132 39.969 C 29.241 39.637 30.606 39.305 32.132 39.135 Z" style=""/>
  <path fill="#303B45" opacity="1.000000" stroke="none" d="M 332.013 131.824 C 330.845 131.956 329.424 132.043 327.83 132.001 C 329.025 131.841 330.392 131.81 332.013 131.824 Z" style=""/>
  <path fill="#293742" opacity="1.000000" stroke="none" d="M 178.076 123.357 C 177.702 122.897 177.31 122.238 176.946 121.344 C 177.335 121.792 177.696 122.475 178.076 123.357 Z" style=""/>
  <path fill="#464E59" opacity="1.000000" stroke="none" d="M 274.155 67.341 C 274.19 67.642 274.08 67.765 273.816 67.906 C 273.325 67.908 272.948 67.857 272.562 67.667 C 273.052 67.42 273.551 67.31 274.155 67.341 Z" style=""/>
  <path fill="#293742" opacity="1.000000" stroke="none" d="M 184.903 130.418 C 184.418 130.326 183.853 130.068 183.267 129.628 C 183.772 129.715 184.298 129.984 184.903 130.418 Z" style=""/>
  <path fill="#141E28" opacity="1.000000" stroke="none" d="M 220.781 96.47 C 220.701 97.104 220.465 97.849 220.03 98.642 C 220.096 97.986 220.36 97.283 220.781 96.47 Z" style=""/>
  <path fill="#464E59" opacity="1.000000" stroke="none" d="M 292.559 69.268 C 292.358 68.915 292.311 68.448 292.253 67.748 C 292.399 68.062 292.556 68.608 292.559 69.268 Z" style=""/>
  <path fill="#1D2832" opacity="1.000000" stroke="none" d="M 159.105 97.897 C 159.066 98.465 158.807 99.048 158.35 99.677 C 158.396 99.12 158.641 98.516 159.105 97.897 Z" style=""/>
  <path fill="#1E2933" opacity="1.000000" stroke="none" d="M 81.102 55.746 C 80.731 55.905 80.121 56.032 79.465 55.966 C 79.901 55.753 80.382 55.734 81.102 55.746 Z" style=""/>
  <path fill="#1E2933" opacity="1.000000" stroke="none" d="M 285.321 104.736 C 285.432 105.359 285.53 106.221 285.486 107.22 C 285.332 106.563 285.321 105.769 285.321 104.736 Z" style=""/>
  <path fill="#1E2933" opacity="1.000000" stroke="none" d="M 74.227 114.831 C 74.066 115.115 73.715 115.407 73.255 115.563 C 73.443 115.23 73.741 115.035 74.227 114.831 Z" style=""/>
  <path fill="#1D2832" opacity="1.000000" stroke="none" d="M 74.289 99.018 C 74.033 99.236 73.695 99.312 73.265 99.265 C 73.519 99.054 73.863 98.965 74.289 99.018 Z" style=""/>
  <path fill="#1E2933" opacity="1.000000" stroke="none" d="M 74.912 55.568 C 74.622 55.656 74.216 55.597 73.769 55.378 C 74.083 55.286 74.439 55.353 74.912 55.568 Z" style=""/>
  <path fill="#293742" opacity="1.000000" stroke="none" d="M 180.913 134.852 C 181.263 134.918 181.647 135.165 182.062 135.596 C 181.712 135.531 181.329 135.282 180.913 134.852 Z" style=""/>
  <path fill="#24323D" opacity="1.000000" stroke="none" d="M 274.88 93.058 C 275.147 93.203 275.426 93.521 275.578 93.941 C 275.265 93.772 275.079 93.502 274.88 93.058 Z" style=""/>
  <path fill="#5F646E" opacity="1.000000" stroke="none" d="M 356.739 121.027 C 356.699 120.848 356.784 120.622 356.959 120.313 C 356.988 120.48 356.926 120.73 356.739 121.027 Z" style=""/>
  <path fill="#5F646E" opacity="1.000000" stroke="none" d="M 350.66 120.661 C 350.708 120.905 350.61 121.274 350.361 121.76 C 350.311 121.513 350.413 121.149 350.66 120.661 Z" style=""/>
  <path fill="#1E2933" opacity="1.000000" stroke="none" d="M 285.335 108.747 C 285.427 108.876 285.507 109.19 285.472 109.589 C 285.345 109.427 285.334 109.18 285.335 108.747 Z" style=""/>
  <path fill="#16232D" opacity="1.000000" stroke="none" d="M 274.153 98.152 C 274.221 98.28 274.11 98.432 273.818 98.609 C 273.75 98.482 273.862 98.329 274.153 98.152 Z" style=""/>
  <path fill="#1E2C36" opacity="1.000000" stroke="none" d="M 239.347 92.976 C 239.409 93.101 239.298 93.24 239.019 93.402 C 238.958 93.281 239.066 93.137 239.347 92.976 Z" style=""/>
  <path fill="#1E2933" opacity="1.000000" stroke="none" d="M 114.528 119.29 C 114.596 119.413 114.491 119.561 114.233 119.753 C 114.125 119.616 114.216 119.454 114.528 119.29 Z" style=""/>
  <path fill="#1E2933" opacity="1.000000" stroke="none" d="M 74.892 114.276 C 74.954 114.41 74.835 114.558 74.549 114.742 C 74.464 114.602 74.573 114.439 74.892 114.276 Z" style=""/>
  <path fill="#16232D" opacity="1.000000" stroke="none" d="M 175.849 117.147 C 175.793 117.02 175.91 116.882 176.199 116.726 C 176.259 116.853 176.143 116.995 175.849 117.147 Z" style=""/>
  <path fill="#293742" opacity="1.000000" stroke="none" d="M 173.822 120.147 C 173.811 120.216 173.659 120.276 173.451 120.252 C 173.396 120.169 173.68 120.136 173.822 120.147 Z" style=""/>
  <path fill="#293742" opacity="1.000000" stroke="none" d="M 176.847 120.574 C 176.741 120.592 176.586 120.462 176.378 120.188 C 176.483 120.171 176.641 120.299 176.847 120.574 Z" style=""/>
  <path fill="#293742" opacity="1.000000" stroke="none" d="M 178.595 124.037 C 178.443 124.119 178.293 124.005 178.126 123.707 C 178.232 123.681 178.395 123.786 178.595 124.037 Z" style=""/>
  <path fill="#24323D" opacity="1.000000" stroke="none" d="M 158.68 113.546 C 158.61 113.464 158.539 113.381 158.47 113.299 C 158.519 113.328 158.567 113.357 158.649 113.464 C 158.682 113.544 158.681 113.545 158.68 113.546 Z" style=""/>
  <path fill="#1D2832" opacity="1.000000" stroke="none" d="M 60.707 88.904 C 60.373 88.72 60.174 88.425 59.961 87.943 C 60.246 88.102 60.544 88.448 60.707 88.904 Z" style=""/>
  <path fill="#293742" opacity="1.000000" stroke="none" d="M 181.777 132.039 C 181.763 132.014 181.79 132.063 181.777 132.039 Z" style=""/>
  <path fill="#28333F" opacity="1.000000" stroke="none" d="M 104.15 100.434 C 103.96 100.06 103.961 99.781 103.961 99.294 C 106.876 99.381 109.795 99.937 112.706 99.895 C 115.36 99.857 118.005 99.17 120.798 98.919 C 121.012 101.157 119.894 102.141 118.011 102.944 C 112.851 105.143 108.323 104.591 104.15 100.434 Z" style=""/>
  <path fill="#16232D" opacity="1.000000" stroke="none" d="M 301.662 93.946 C 301.356 93.771 301.177 93.496 300.989 93.049 C 301.25 93.199 301.519 93.522 301.662 93.946 Z" style=""/>
  <path fill="#16232D" opacity="1.000000" stroke="none" d="M 299.79 92.078 C 299.523 92.1 299.232 91.964 298.797 91.75 C 299.024 91.755 299.395 91.838 299.79 92.078 Z" style=""/>
  <path fill="#000000" opacity="1.000000" stroke="none" d="M 195.423 110.859 C 195.474 110.84 195.526 110.823 195.502 110.834 C 195.427 110.863 195.425 110.86 195.423 110.859 Z" style=""/>
  <path fill="#16232D" opacity="1.000000" stroke="none" d="M 327.051 101.737 C 327.08 101.737 327.023 101.737 327.051 101.737 Z" style=""/>
  <path fill="#24323D" opacity="1.000000" stroke="none" d="M 81.326 91.283 C 80.792 91.408 80.248 91.311 79.569 91.053 C 79.725 90.522 80.017 90.152 80.308 89.783 C 80.644 90.209 80.98 90.636 81.326 91.283 Z" style=""/>
  <path fill="#24323D" opacity="1.000000" stroke="none" d="M 272.854 107.115 C 272.826 107.131 272.882 107.099 272.854 107.115 Z" style=""/>
</svg>