<?xml version="1.0" encoding="utf-8"?>
<svg version="1.1" id="Layer_1" xmlns="http://www.w3.org/2000/svg" x="0px" y="0px" width="100%" viewBox="0 0 500 500" enable-background="new 0 0 500 500">
  <path fill="#1D2832" opacity="1.000000" stroke="none" d=" M329.086151,235.040390 C324.078156,241.773911 319.915131,249.408203 313.891205,255.058640 C300.176270,267.923187 283.470734,275.937317 265.011627,279.281128 C241.190781,283.596130 218.270828,281.241547 196.769653,268.605469 C182.324142,260.115997 170.101135,249.259552 160.812531,235.694733 C151.681686,222.360336 146.419937,207.214645 144.833481,190.766541 C143.749573,179.528534 144.988419,168.697449 147.481537,157.507492 C148.183502,159.560532 148.831970,161.933578 148.665619,164.248047 C148.378723,168.239334 147.078232,172.196121 147.093491,176.163956 C147.153610,191.793106 149.900406,206.837769 157.939407,220.563919 C158.507263,221.533524 158.428467,222.880432 158.992004,223.854187 C162.000641,229.052704 165.117996,234.188309 168.465607,239.794250 C170.857300,235.995514 172.429916,233.497742 174.002518,230.999954 C177.702042,235.215637 181.277359,239.548523 185.123932,243.625458 C197.650360,256.902039 213.695068,263.048950 231.243500,266.027039 C250.915619,269.365509 269.642944,265.580048 287.311493,257.191132 C306.050110,248.294128 317.942200,232.558868 325.740356,213.867722 C329.074799,205.875473 330.520660,197.095306 333.340393,188.416260 C333.677399,190.950272 333.650848,193.761322 333.284210,196.527313 C332.735596,200.666321 333.314453,204.177307 338.567047,206.650024 C336.497681,207.261032 335.249451,207.629593 333.949249,207.871994 C333.819641,207.700195 333.741974,207.654541 333.664337,207.608887 C333.775604,207.739716 333.886841,207.870560 333.998322,208.404510 C333.158417,211.211990 332.469208,213.682800 331.446228,216.006668 C329.414734,220.621552 326.861328,225.036118 325.190399,229.768890 C324.231537,232.484634 324.673553,235.592743 329.086151,235.040390 z"/>
  <path fill="#192530" opacity="1.000000" stroke="none" d=" M106.998611,370.972534 C106.569229,370.989075 106.139839,371.005646 105.167366,371.114838 C104.347282,371.383636 104.145386,371.623047 104.018578,371.925781 C102.260567,371.925781 100.502556,371.925781 97.870209,371.925781 C97.870209,353.235046 97.870209,335.019257 97.870209,316.442780 C98.268410,316.368378 99.200500,316.064240 100.140221,316.038513 C110.990532,315.741638 121.842377,315.352142 132.692673,315.383698 C134.123825,315.387848 135.786301,317.419037 136.877502,318.862366 C137.435760,319.600769 136.844025,321.131165 136.982407,322.278229 C137.496811,326.542175 135.879242,328.308319 131.399521,328.104980 C124.807755,327.805786 118.192322,328.027832 111.470505,328.027832 C110.944466,331.494659 110.510056,334.357635 109.957191,338.001221 C116.768089,338.001221 123.040222,338.059906 129.310379,337.974121 C132.053223,337.936615 134.410126,337.997406 134.009262,341.787140 C133.653732,345.148285 135.495193,349.758972 129.590027,349.929230 C123.641281,350.100708 117.683739,349.966980 111.462021,349.966980 C110.948402,353.001343 110.513374,355.571472 109.658150,358.585754 C108.492760,360.227356 107.255890,361.365753 107.103462,362.634430 C106.773788,365.378387 106.999863,368.189117 106.998611,370.972534 z"/>
  <path fill="#232D36" opacity="1.000000" stroke="none" d=" M123.797646,93.957489 C124.313850,93.023071 124.830048,92.088654 126.087898,91.082611 C128.899429,90.654938 130.969315,90.298889 133.039185,89.942841 C137.654007,93.836754 143.211731,93.076775 148.576508,92.957481 C156.033676,92.791687 161.570145,95.770905 164.308502,102.764618 C169.323959,115.574036 174.084473,128.484131 178.867691,141.383255 C180.996658,147.124527 182.794006,152.992203 185.054108,158.678406 C185.483810,159.759521 187.331116,160.804108 188.609711,160.919418 C192.072861,161.231796 195.581924,161.035385 199.466522,161.411346 C197.877518,164.307404 195.711594,165.260437 192.199799,164.506470 C190.525742,164.147049 188.249969,166.590164 186.246765,167.763809 C187.499481,169.178375 188.752182,170.592941 190.003311,172.388901 C189.590958,175.459488 189.180161,178.148682 188.650513,181.616013 C187.659515,181.188477 186.154205,180.868988 185.088867,180.006226 C183.248444,178.515808 181.681229,176.688065 179.957855,174.649796 C179.279449,172.531189 178.642578,170.764633 178.220062,168.820923 C177.960281,168.094360 177.486115,167.544952 176.962540,166.625580 C173.366165,157.031097 169.694168,147.852203 166.308334,138.568909 C163.091629,129.749329 160.391266,120.736649 157.006592,111.985741 C155.834763,108.956055 153.751968,104.742188 151.276306,104.076149 C146.264862,102.727905 140.577957,102.673218 135.398834,103.507858 C130.224945,104.341652 128.486343,104.016945 126.905487,98.983490 C126.333549,97.162422 124.859863,95.624573 123.797646,93.957489 z"/>
  <path fill="#303B45" opacity="1.000000" stroke="none" d=" M106.047127,378.005249 C106.047127,378.005249 106.145844,378.332489 106.116440,378.909363 C106.762398,380.621277 107.437744,381.756348 108.113098,382.891418 C108.113098,382.891418 108.109871,382.931519 108.188507,383.156403 C108.457397,383.667084 108.715202,383.864807 109.040565,383.974487 C109.040565,383.974487 108.998528,383.991730 108.998650,384.344971 C107.972282,390.233643 108.696411,391.015350 113.933441,390.025085 C114.803047,390.891968 115.672646,391.758850 116.806595,393.152618 C118.045143,394.123749 119.019356,394.567993 119.993561,395.012268 C122.790916,395.684265 125.565056,396.801117 128.389786,396.948547 C138.653732,397.484222 148.936279,398.018005 159.208832,397.966217 C186.459137,397.828766 213.707794,397.376007 240.957504,397.085480 C242.764374,397.066193 244.574570,397.356232 246.360474,398.067932 C242.559311,398.756866 238.780869,398.880249 234.533768,399.000854 C229.779922,399.000305 225.494690,398.987732 221.209610,399.008484 C215.341888,399.036926 213.919083,401.753052 216.998627,407.268951 C216.997467,407.698883 216.996460,407.870880 216.995453,408.042877 C209.299637,408.282928 201.603806,408.522980 193.304901,408.339569 C192.138306,407.626373 191.576035,407.086365 191.011124,407.083618 C178.589737,407.023163 166.167816,406.989075 153.746933,407.078186 C152.831696,407.084747 151.923416,408.061920 151.011902,408.587891 C146.647766,408.673615 142.283615,408.759399 137.344788,408.446442 C133.521179,407.478424 130.317703,404.125244 126.998077,407.888184 C126.251488,407.872040 125.504898,407.855896 124.373001,407.415985 C122.916992,406.068115 121.977760,404.678772 120.744400,404.330200 C118.948273,403.822632 116.940414,404.064301 115.022827,403.986542 C115.022827,403.986542 114.998512,404.000000 114.950119,403.669189 C114.240372,402.912506 113.579002,402.486633 112.917633,402.060760 C112.917633,402.060760 113.005775,402.025452 112.990906,401.657196 C111.829811,399.235107 110.768051,397.127350 109.504257,395.148621 C108.796722,394.040802 107.112976,393.232391 106.967682,392.142639 C106.077469,385.465790 100.883347,382.482269 96.220367,378.998444 C97.234108,378.335693 98.247849,377.672943 99.731659,377.175140 C100.465027,377.237183 100.728310,377.134308 100.991592,377.031433 C102.205231,376.812683 103.418861,376.593933 104.938965,376.855164 C105.512657,377.558502 105.779892,377.781891 106.047127,378.005249 M114.486755,397.563629 C114.486755,397.563629 114.441605,397.479553 114.486755,397.563629 z"/>
  <path fill="#1E2C36" opacity="1.000000" stroke="none" d=" M302.127563,190.096756 C299.968842,192.012405 297.810120,193.928055 295.052216,195.626373 C290.148926,195.931564 285.843475,196.898315 281.540985,196.885315 C272.212372,196.857117 262.871307,195.918579 253.565536,196.236481 C250.512634,196.340759 246.117722,194.480743 243.991364,198.929443 C238.313858,198.938751 232.636337,198.948074 226.379578,198.567444 C221.539734,197.454468 217.291779,196.266983 213.014694,196.150650 C209.382446,196.051849 205.658783,196.954926 202.080002,197.837967 C197.475845,198.973999 190.321350,196.713272 188.264679,192.788376 C189.865845,188.934326 191.748230,185.845566 195.965775,185.067230 C196.427612,185.062531 196.889465,185.057816 197.841858,185.270905 C198.870377,185.368698 199.408340,185.248703 199.946320,185.128708 C209.342148,185.119247 218.737976,185.109787 228.914551,185.376297 C235.460678,186.101440 241.226074,186.550629 247.294220,187.152344 C253.930054,193.762573 261.130432,194.640518 269.333893,191.143173 C272.328735,189.866409 274.104919,188.302841 274.231628,184.972534 C274.467773,184.962997 274.940338,184.950729 275.164001,185.227844 C280.695831,190.527267 285.710236,187.267776 290.656860,184.813980 C291.123047,184.582733 290.913971,182.990265 291.018433,182.029785 C291.863129,181.114685 292.707825,180.199600 294.143555,179.331726 C297.198914,182.951553 299.663239,186.524155 302.127563,190.096756 z"/>
  <path fill="#464E59" opacity="1.000000" stroke="none" d=" M415.969360,378.613556 C413.740021,390.947662 406.236847,398.969849 395.083923,403.883270 C386.567596,407.635132 377.596222,408.309113 368.354950,408.077820 C353.224976,407.699158 338.080719,407.891663 322.462921,407.415192 C321.758057,403.775970 316.248352,403.200195 318.469757,398.999268 C326.736450,398.993469 334.536469,399.078888 342.331238,398.915192 C343.924561,398.881714 345.498199,397.913452 347.080933,397.376129 C353.085907,397.305573 359.090912,397.235046 365.863220,397.421936 C369.080536,397.529236 371.530487,397.379150 373.980438,397.229095 C383.925415,397.764679 392.800812,395.197571 399.710541,387.732330 C401.646149,385.641052 402.809021,382.834534 404.887299,379.975037 C405.616364,378.957764 405.784515,378.321594 405.952637,377.685425 C405.952637,377.685425 405.900604,377.304230 406.390747,377.128876 C410.126343,376.274170 413.371826,375.594788 416.617310,374.915405 C416.687805,375.412964 416.758270,375.910461 416.618774,376.925507 C416.262329,377.833221 416.115845,378.223389 415.969360,378.613556 z"/>
  <path fill="#28303B" opacity="1.000000" stroke="none" d=" M173.822678,230.714081 C172.429916,233.497742 170.857300,235.995514 168.465607,239.794250 C165.117996,234.188309 162.000641,229.052704 158.992004,223.854187 C158.428467,222.880432 158.507263,221.533524 157.939407,220.563919 C149.900406,206.837769 147.153610,191.793106 147.093491,176.163956 C147.078232,172.196121 148.378723,168.239334 148.665619,164.248047 C148.831970,161.933578 148.183502,159.560532 147.547028,157.098083 C148.278091,153.878220 148.318100,149.530243 152.878479,149.664200 C156.559204,149.772339 160.271088,156.013184 159.914047,160.508743 C159.705261,163.137405 159.310669,165.757889 158.873108,168.360764 C155.942627,185.793045 159.358368,202.267853 166.590790,218.083878 C168.553528,222.376053 171.271500,226.322876 173.822678,230.714081 z"/>
  <path fill="#303B45" opacity="1.000000" stroke="none" d=" M208.049133,86.160500 C208.049133,86.160500 208.517059,86.065491 209.078857,86.174706 C213.091446,87.483566 215.494965,86.286018 217.013596,83.062912 C229.318527,78.559464 241.972565,78.186981 254.813995,79.789062 C259.485046,80.371826 264.228546,80.493408 268.847931,81.328850 C271.971069,81.893684 275.045319,83.099136 277.948425,84.436829 C284.994659,87.683571 291.928192,91.174850 299.302094,94.759613 C297.615387,97.812431 296.370361,100.065804 294.609314,102.590363 C292.015686,101.867630 289.921539,100.906609 287.863129,99.874420 C274.696136,93.271805 260.692596,89.023422 246.049118,89.271454 C235.633896,89.447868 225.263519,92.215607 214.867340,93.788651 C214.467712,93.849129 214.007828,93.511345 213.572113,93.357765 C214.019501,92.129326 214.430756,91.000137 214.942368,89.595337 C211.880127,89.405449 208.148346,91.052269 208.049133,86.160500 z"/>
  <path fill="#16232D" opacity="1.000000" stroke="none" d=" M327.018707,342.039215 C327.436768,342.544525 327.753906,343.302094 328.288544,343.515991 C333.458069,345.583984 336.087280,349.112213 336.070740,354.911530 C336.053192,361.073059 333.524567,365.778137 328.187073,368.221436 C323.937775,370.166565 319.130676,371.457123 314.476532,371.818329 C307.896667,372.328918 301.229584,371.715576 294.516205,371.092590 C297.788055,370.257202 301.143433,369.911896 302.989044,369.721954 C303.790253,365.820740 304.387604,362.912018 305.447388,360.003723 C309.995209,359.709320 314.209534,359.906616 318.104858,358.886261 C319.746033,358.456360 321.581177,355.495636 321.665192,353.611176 C321.716187,352.467987 318.696991,350.382996 316.861145,350.127167 C312.971649,349.585175 308.953827,349.963776 304.991455,349.547852 C305.660400,345.782532 306.326508,342.434204 307.441956,339.051636 C312.986023,339.237244 318.160492,339.665466 321.264771,334.245178 C321.101379,338.647797 324.323761,340.151642 327.018707,342.039215 z"/>
  <path fill="#3F4B57" opacity="1.000000" stroke="none" d=" M318.001221,399.002441 C316.248352,403.200195 321.758057,403.775970 322.000885,407.343933 C293.993317,407.791199 265.968201,407.881683 237.474762,407.530151 C236.338409,404.393280 235.670425,401.698486 235.002441,399.003662 C238.780869,398.880249 242.559311,398.756866 246.642395,398.370697 C247.412643,398.106018 247.878204,398.104065 249.007660,398.372467 C251.484924,398.762238 253.298203,398.983398 255.111725,398.985535 C276.074890,399.010345 297.038055,399.001984 318.001221,399.002441 z"/>
  <path fill="#1E2933" opacity="1.000000" stroke="none" d=" M327.364960,341.980530 C324.323761,340.151642 321.101379,338.647797 321.252686,333.912750 C320.981293,332.891785 320.983582,332.448303 321.204834,331.830811 C320.959106,331.100403 320.494476,330.544067 319.764801,329.876556 C319.006165,329.471283 318.512604,329.177246 317.976746,328.610718 C317.295746,328.195557 316.657013,328.052887 315.565918,327.943176 C311.762878,328.316284 308.412231,328.656525 304.770111,329.279724 C305.745056,338.705597 299.397217,342.852905 293.041473,346.994995 C293.025360,338.206848 293.113800,329.416656 292.939301,320.631653 C292.873871,317.339111 293.657318,315.752838 297.352081,315.996979 C305.257019,316.519348 313.282471,316.065704 321.069824,317.251343 C327.295502,318.199219 332.380249,321.880920 333.777069,328.878387 C334.716461,333.584351 332.298523,338.859619 327.364960,341.980530 z"/>
  <path fill="#232D36" opacity="1.000000" stroke="none" d=" M207.661621,86.101974 C208.148346,91.052269 211.880127,89.405449 214.942368,89.595337 C214.430756,91.000137 214.019501,92.129326 213.572113,93.357765 C214.007828,93.511345 214.467712,93.849129 214.867340,93.788651 C225.263519,92.215607 235.633896,89.447868 246.049118,89.271454 C260.692596,89.023422 274.696136,93.271805 287.863129,99.874420 C289.921539,100.906609 292.015686,101.867630 294.438293,102.893860 C294.490906,104.643181 294.198517,106.360199 293.836578,108.485603 C277.155762,95.495911 258.303833,90.920815 238.302139,92.145943 C223.212082,93.070221 208.440369,96.589722 196.065781,106.309143 C192.335678,109.238884 188.237671,110.887161 183.613007,109.844131 C181.812408,109.438026 179.688965,107.881630 178.932999,106.274963 C178.368668,105.075546 179.228119,102.338486 180.372726,101.342400 C188.285904,94.456024 197.115707,89.045975 207.661621,86.101974 z"/>
  <path fill="#1E2933" opacity="1.000000" stroke="none" d=" M221.934586,241.957474 C214.855347,251.288162 204.692535,252.476913 195.596954,245.038254 C186.067657,237.244873 183.831390,231.042313 188.067245,221.039368 C189.508408,217.636078 192.838150,215.032532 195.696014,212.394791 C197.664581,218.501297 202.231155,218.980789 207.108124,219.003448 C213.106842,219.031342 216.362244,223.064255 217.177368,228.889114 C217.805710,233.379211 220.280685,237.610886 221.934586,241.957474 M213.826965,230.167038 C213.927521,225.637146 211.893936,222.005920 207.482452,221.556061 C205.170303,221.320297 201.822113,223.327515 200.271423,225.344177 C197.766693,228.601562 199.649063,233.617249 203.227249,235.479080 C207.074600,237.480957 211.006683,235.735031 213.826965,230.167038 z"/>
  <path fill="#141E28" opacity="1.000000" stroke="none" d=" M137.996002,360.995117 C137.996002,360.995117 137.496338,360.978485 137.245697,360.654724 C136.997330,359.890900 136.999573,359.450775 137.001831,359.010681 C141.231491,348.311066 151.603378,343.032166 163.653885,346.183411 C165.038757,348.760864 166.901886,350.867554 166.791656,352.865387 C166.415848,359.677185 171.639465,360.253296 175.947479,362.006683 C175.778305,365.193695 176.670731,369.080444 175.155045,371.379883 C173.486633,373.911072 166.210022,371.548187 163.857544,368.398438 C152.618027,377.342804 138.482086,371.344299 138.143890,361.340393 C138.174118,360.935455 138.085052,360.965271 137.996002,360.995117 M161.565308,359.952576 C161.826996,358.324768 162.088684,356.696960 162.350372,355.069153 C160.821396,354.901459 159.295410,354.657135 157.762222,354.597443 C156.962143,354.566345 155.942612,354.602905 155.380432,355.054657 C153.556396,356.520538 150.232971,358.559357 150.487900,359.716125 C151.251678,363.181458 154.586166,363.477478 157.681519,362.553223 C158.889114,362.192627 159.909836,361.206268 161.565308,359.952576 z"/>
  <path fill="#1E2933" opacity="1.000000" stroke="none" d=" M364.011292,348.984100 C364.038330,345.904541 363.902313,342.812378 364.139252,339.749054 C364.366821,336.807037 364.980804,333.894928 365.547028,330.166107 C372.805054,330.166107 380.312286,329.996460 387.795624,330.342682 C388.964783,330.396790 390.481598,332.626587 391.057007,334.145996 C393.547119,340.721100 395.747345,347.405975 397.809967,354.526428 C396.368713,355.798645 395.170563,356.595337 393.066895,357.994141 C390.382599,354.702332 387.787384,351.495209 385.145813,348.326691 C384.933380,348.071838 384.402283,348.082703 384.019257,347.970093 C381.806549,343.083160 379.593842,338.196259 376.944672,332.345337 C376.944672,342.488007 376.944672,351.770538 376.583435,361.601166 C374.867249,363.040253 372.811951,364.972412 372.291779,364.622528 C370.864319,363.662292 369.732971,361.870697 369.115234,360.178009 C367.760376,356.465637 366.807983,352.606995 365.604980,348.835632 C365.570221,348.726746 364.564362,348.927643 364.011292,348.984100 M364.841553,345.267670 C364.939941,345.267120 365.038300,345.266541 364.841553,345.267670 z"/>
  <path fill="#171E25" opacity="1.000000" stroke="none" d=" M187.989975,193.003632 C190.321350,196.713272 197.475845,198.973999 202.080002,197.837967 C205.658783,196.954926 209.382446,196.051849 213.014694,196.150650 C217.291779,196.266983 221.539734,197.454468 225.913635,198.550735 C216.902130,199.272736 207.779449,199.756226 198.651337,199.903580 C195.030762,199.962006 191.346069,199.526917 187.798126,198.795135 C186.486893,198.524704 185.023071,196.965851 184.420837,195.635956 C181.756561,189.752808 179.237350,183.793976 176.927628,177.762207 C170.692307,161.478851 164.549377,145.159714 158.462646,128.820175 C156.785355,124.317566 155.481201,119.677383 153.922470,115.128899 C151.108704,106.917976 144.960312,104.805321 136.393661,107.768059 C133.065460,108.919121 128.435974,108.547615 125.192245,107.096756 C121.684387,105.527771 120.292122,101.350693 121.096115,97.210236 C121.313644,96.089935 122.395172,95.137405 123.438889,94.032684 C124.859863,95.624573 126.333549,97.162422 126.905487,98.983490 C128.486343,104.016945 130.224945,104.341652 135.398834,103.507858 C140.577957,102.673218 146.264862,102.727905 151.276306,104.076149 C153.751968,104.742188 155.834763,108.956055 157.006592,111.985741 C160.391266,120.736649 163.091629,129.749329 166.308334,138.568909 C169.694168,147.852203 173.366165,157.031097 176.984238,166.921555 C177.372147,168.057678 177.688919,168.527863 178.005692,168.998062 C178.642578,170.764633 179.279449,172.531189 179.935150,174.936218 C182.632614,181.384323 185.311295,187.193970 187.989975,193.003632 z"/>
  <path fill="#293742" opacity="1.000000" stroke="none" d=" M261.100647,155.203461 C258.263336,159.697235 255.426041,164.191025 251.897736,168.839996 C249.830338,169.433258 248.466568,169.917191 247.075134,170.300735 C242.966309,171.433365 238.879593,173.290817 234.723938,173.470535 C226.844879,173.811234 218.923859,173.181229 211.004761,172.603073 C210.454620,171.573593 209.919968,170.895508 209.385315,170.217407 C208.922546,170.804855 208.459793,171.392303 207.665283,171.982712 C206.891159,171.988327 206.448776,171.990982 206.159576,171.640305 C208.980972,167.124466 204.531128,164.571014 204.016327,161.128052 C213.623215,161.433319 223.228836,161.803268 232.838013,161.993317 C234.947388,162.035034 237.069427,161.436844 239.964844,161.067780 C244.158401,157.335281 247.572739,153.668350 251.305756,150.142181 C254.783173,151.923126 257.941925,153.563293 261.100647,155.203461 z"/>
  <path fill="#16232D" opacity="1.000000" stroke="none" d=" M275.014557,353.008270 C273.601562,355.041260 272.188568,357.074280 270.167847,359.981659 C274.922913,359.625977 279.036682,359.387207 283.135437,358.992340 C287.233582,358.597534 289.325897,359.810303 289.083649,364.463348 C288.775665,370.379059 287.906891,371.915710 282.985352,371.955872 C273.674866,372.031891 264.361908,371.881989 255.053009,372.024475 C252.073990,372.070038 251.072296,371.134125 250.894897,368.075378 C250.608200,363.132263 251.485001,359.094421 255.618805,355.792511 C260.088562,352.222229 264.139618,348.127777 268.680542,344.496552 C268.562012,346.301453 268.136322,347.871765 267.792633,349.139496 C270.316284,350.491425 272.665436,351.749847 275.014557,353.008270 M271.574982,354.514221 C271.574982,354.514221 271.478424,354.568848 271.574982,354.514221 z"/>
  <path fill="#141E28" opacity="1.000000" stroke="none" d=" M191.996307,362.003296 C195.387421,362.307404 199.141190,364.440094 202.302582,359.265930 C199.433746,358.111359 196.847580,357.033905 194.234009,356.027710 C190.708572,354.670441 186.768875,353.932373 183.765335,351.839966 C181.823898,350.487366 181.239685,347.186615 180.428406,344.386169 C184.881165,347.629730 188.946762,346.632660 193.010239,343.997559 C197.626129,345.278015 202.286194,346.420349 206.845398,347.878113 C211.330124,349.312134 214.711426,352.774475 214.561325,357.186096 C214.434814,360.903625 212.642212,365.477295 209.997314,368.015137 C203.566345,374.185913 195.649445,374.514709 187.288940,370.505737 C186.185806,367.434753 185.388748,364.659637 184.476807,361.484558 C187.341049,361.682129 189.668686,361.842712 191.996307,362.003296 z"/>
  <path fill="#37404B" opacity="1.000000" stroke="none" d=" M257.294281,117.887047 C255.925049,117.029373 254.555817,116.171700 251.823959,114.460503 C253.222595,113.867393 253.981079,113.255333 254.719086,113.279083 C260.241119,113.456833 265.827759,113.326477 271.252441,114.186638 C274.512787,114.703613 278.389832,116.039177 280.488800,118.362709 C289.876434,128.754654 295.122681,140.761459 291.672699,155.597687 C288.943481,154.110687 287.005585,151.734451 284.504974,150.479111 C281.373199,148.906937 281.345673,146.608932 280.869507,143.696228 C279.625854,136.088516 277.510681,128.940399 269.037476,125.673439 C266.064209,124.527054 263.849060,121.498405 261.149261,119.517990 C260.054535,118.714958 258.590363,118.415596 257.294281,117.887047 z"/>
  <path fill="#37404B" opacity="1.000000" stroke="none" d=" M261.354919,154.883545 C257.941925,153.563293 254.783173,151.923126 251.308731,149.688431 C252.659454,132.924713 241.468231,124.131119 228.114182,124.710693 C229.138550,121.035912 230.075714,117.604980 231.012894,114.174057 C254.641495,116.868797 264.620270,130.041595 261.354919,154.883545 z"/>
  <path fill="#28333F" opacity="1.000000" stroke="none" d=" M257.352753,118.228256 C258.590363,118.415596 260.054535,118.714958 261.149261,119.517990 C263.849060,121.498405 266.064209,124.527054 269.037476,125.673439 C277.510681,128.940399 279.625854,136.088516 280.869507,143.696228 C281.345673,146.608932 281.373199,148.906937 284.504974,150.479111 C287.005585,151.734451 288.943481,154.110687 291.511841,155.980011 C291.065247,165.339203 286.380920,172.658508 279.147034,178.693985 C276.436798,176.886536 274.297760,175.277679 272.117096,173.727402 C270.765442,172.766464 269.350555,171.894424 267.964050,170.982498 C274.165619,163.167892 278.523315,154.966675 277.243103,144.277298 C276.218597,135.722656 272.897522,130.896881 264.339447,128.784744 C263.244476,128.514511 262.064178,127.498970 261.470337,126.502693 C259.952606,123.956451 258.743683,121.226151 257.352753,118.228256 z"/>
  <path fill="#24323D" opacity="1.000000" stroke="none" d=" M334.001221,207.998169 C335.249451,207.629593 336.497681,207.261032 338.567047,206.650024 C333.314453,204.177307 332.735596,200.666321 333.284210,196.527313 C333.650848,193.761322 333.677399,190.950272 333.541321,188.066284 C333.190613,187.540527 333.154755,187.107880 333.454407,186.275085 C334.200867,184.948242 334.611847,184.021561 335.022797,183.094879 C338.677979,181.681931 342.333160,180.268967 347.032745,178.452286 C346.654877,183.035156 346.321045,187.590118 345.896729,192.136597 C344.530273,206.776672 337.681305,219.493423 331.633942,232.482147 C331.235748,233.337494 330.334656,233.958710 329.376801,234.864594 C324.673553,235.592743 324.231537,232.484634 325.190399,229.768890 C326.861328,225.036118 329.414734,220.621552 331.446228,216.006668 C332.469208,213.682800 333.158417,211.211990 333.999268,208.403809 C334.000000,208.000000 334.001221,207.998169 334.001221,207.998169 z"/>
  <path fill="#192530" opacity="1.000000" stroke="none" d=" M230.986542,349.998169 C231.608337,351.112366 232.230133,352.226532 233.308792,354.159363 C234.863159,350.111816 236.145828,346.771729 237.987793,343.429565 C240.621094,346.456329 240.194260,351.923187 246.120697,351.196350 C242.962234,359.379578 239.803772,367.562775 236.179642,375.604919 C234.869598,374.726166 234.008087,373.337646 233.183746,373.359375 C228.742401,373.476349 228.063995,370.676819 227.410721,367.205902 C227.178238,365.970642 225.219070,365.060364 224.048096,364.001740 C222.346695,358.978363 220.645309,353.955017 219.156342,348.316650 C223.241364,348.467194 227.113953,349.232697 230.986542,349.998169 z"/>
  <path fill="#1E2933" opacity="1.000000" stroke="none" d=" M300.908875,234.975403 C298.217682,243.750870 291.687897,248.594757 283.190155,249.692551 C274.899078,250.763687 267.698334,246.867401 263.187744,239.862686 C259.111450,233.532425 259.467865,226.385040 262.703522,219.643463 C262.859314,223.665512 261.769409,227.791901 262.844604,231.243927 C263.859009,234.500687 266.618774,238.026688 269.586365,239.642792 C272.814178,241.400620 274.916779,238.070938 276.367096,235.138306 C284.229279,238.049271 288.789185,234.231003 287.678375,226.244858 C287.538971,225.242294 288.520691,224.083786 289.312134,223.177383 C290.085297,224.190063 290.592072,224.995972 290.962616,225.860275 C292.737793,230.001053 294.476044,234.157654 296.433929,238.797974 C298.617859,236.932419 299.763367,235.953918 300.908875,234.975403 z"/>
  <path fill="#16232D" opacity="1.000000" stroke="none" d=" M363.854736,349.343658 C364.564362,348.927643 365.570221,348.726746 365.604980,348.835632 C366.807983,352.606995 367.760376,356.465637 369.115234,360.178009 C369.732971,361.870697 370.864319,363.662292 372.291779,364.622528 C372.811951,364.972412 374.867249,363.040253 376.560883,362.068481 C376.929138,363.809326 377.384338,365.767639 376.856812,367.410309 C376.415131,368.785522 374.561310,370.937714 373.790131,370.760101 C370.723450,370.053802 366.334167,374.902985 364.571594,368.342285 C359.263824,373.422119 353.206360,374.122986 347.234772,370.934723 C341.474365,367.859222 338.177094,362.807495 339.358124,355.263611 C341.346802,355.851746 343.005920,357.000824 345.117737,358.463440 C346.547333,357.602753 348.724396,356.292053 350.901489,354.981323 C352.204773,356.789673 353.123383,359.289673 354.886932,360.270477 C359.331085,362.742157 363.035706,360.116089 363.053162,355.072571 C363.059357,353.282074 363.471405,351.492950 363.854736,349.343658 z"/>
  <path fill="#1D2832" opacity="1.000000" stroke="none" d=" M175.965973,361.537659 C171.639465,360.253296 166.415848,359.677185 166.791656,352.865387 C166.901886,350.867554 165.038757,348.760864 164.030289,346.337524 C162.056000,340.106598 161.591766,339.877625 151.251617,339.779358 C149.180847,339.155212 147.756866,338.763977 146.332886,338.372711 C147.093414,337.292297 148.306503,336.295471 148.524567,335.114868 C149.053421,332.251678 154.571701,333.265198 153.033737,329.049927 C157.289566,329.409576 161.652908,329.297211 165.776657,330.236633 C172.404587,331.746460 175.960724,336.816345 175.996811,343.673553 C176.027298,349.471741 175.991119,355.270294 175.965973,361.537659 z"/>
  <path fill="#3A4551" opacity="1.000000" stroke="none" d=" M133.162079,292.286011 C131.776108,293.787018 130.664062,295.713135 129.257996,295.959198 C118.258919,297.884064 109.663460,302.902527 105.643768,313.451355 C101.971870,313.451355 98.886215,313.451355 95.237434,313.451355 C95.237434,312.352051 94.704224,310.640686 95.318939,309.622223 C102.375565,297.930725 110.547768,287.622803 125.593040,286.100800 C131.002319,285.553619 133.218079,287.046021 133.162079,292.286011 z"/>
  <path fill="#5F646E" opacity="1.000000" stroke="none" d=" M380.747284,286.177612 C394.791748,286.089905 406.346741,290.609253 413.198822,304.476746 C414.300110,312.465515 413.133606,314.398529 407.263367,314.966980 C405.026459,305.379333 397.869934,300.931213 389.368103,297.976654 C386.406342,296.947418 383.336823,296.228088 380.087769,294.650146 C380.155121,291.347900 380.451202,288.762756 380.747284,286.177612 z"/>
  <path fill="#28333F" opacity="1.000000" stroke="none" d=" M222.206909,241.750305 C220.280685,237.610886 217.805710,233.379211 217.177368,228.889114 C216.362244,223.064255 213.106842,219.031342 207.108124,219.003448 C202.231155,218.980789 197.664581,218.501297 196.044556,212.366547 C196.473480,211.699646 196.944931,211.392197 197.881104,211.255280 C198.903259,210.961029 199.460678,210.496246 200.018097,210.031464 C200.018097,210.031464 199.994492,210.008789 200.213211,209.902679 C200.683746,209.610519 200.873444,209.374542 201.000992,209.088593 C216.701935,203.733276 229.854919,218.223343 226.668655,233.850784 C226.110977,236.585922 223.917313,238.987503 222.206909,241.750305 z"/>
  <path fill="#28333F" opacity="1.000000" stroke="none" d=" M302.412720,189.919235 C299.663239,186.524155 297.198914,182.951553 294.438721,179.219772 C295.360229,177.570450 296.577576,176.080307 298.244934,174.110260 C299.463654,171.014893 300.598358,168.444138 300.924316,165.774628 C301.590485,160.319153 301.821838,154.810577 302.280548,148.678772 C306.429932,151.568512 309.659729,153.817825 312.889526,156.067139 C312.558655,162.151047 312.621582,168.289536 311.788086,174.303802 C310.924591,180.534821 307.363647,185.554764 302.412720,189.919235 z"/>
  <path fill="#192530" opacity="1.000000" stroke="none" d=" M193.007233,343.596008 C188.946762,346.632660 184.881165,347.629730 180.450867,343.996643 C180.078903,342.922119 180.065582,341.864441 180.413422,340.325745 C181.181427,338.561432 181.588303,337.278137 181.995178,335.994812 C187.930542,328.809753 199.768158,326.766907 208.528458,331.242584 C209.578583,331.779083 211.121460,331.351135 212.913025,331.081726 C213.658722,330.614319 213.850098,330.373932 213.964218,330.072052 C214.418320,330.055237 214.872406,330.038422 215.675964,330.444580 C216.154953,331.514496 216.331726,332.156097 216.406372,332.809326 C216.947052,337.541168 217.467133,342.275299 217.993744,347.008728 C216.531891,343.380585 215.070038,339.752411 213.495407,335.844360 C211.351929,338.123138 209.180038,340.432098 207.057922,342.688171 C197.190903,338.716949 195.075607,338.803009 193.007233,343.596008 z"/>
  <path fill="#16232D" opacity="1.000000" stroke="none" d=" M136.533005,359.005524 C136.999573,359.450775 136.997330,359.890900 136.995804,360.661011 C136.847916,373.531738 138.501663,371.899475 126.153168,371.935303 C120.022842,371.953094 113.891273,371.539703 107.379440,371.146942 C106.999863,368.189117 106.773788,365.378387 107.103462,362.634430 C107.255890,361.365753 108.492760,360.227356 109.654999,359.001740 C118.736092,358.982513 127.400139,358.991455 136.533005,359.005524 z"/>
  <path fill="#293742" opacity="1.000000" stroke="none" d=" M301.084351,234.601852 C299.763367,235.953918 298.617859,236.932419 296.433929,238.797974 C294.476044,234.157654 292.737793,230.001053 290.962616,225.860275 C290.592072,224.995972 290.085297,224.190063 289.142120,222.875381 C285.806702,221.288010 282.970490,220.182480 279.746155,219.047180 C277.570007,216.678024 275.781952,214.338654 274.106934,211.738754 C274.474304,210.971680 274.728638,210.465103 274.982971,209.958542 C283.069733,205.947754 289.775055,209.368805 295.706909,214.429642 C301.774536,219.606323 303.350677,226.520737 301.084351,234.601852 z"/>
  <path fill="#5F646E" opacity="1.000000" stroke="none" d=" M271.958527,296.679077 C261.274109,296.448364 250.589691,296.217651 239.446411,295.524170 C238.676590,292.179962 238.365631,289.298462 238.054657,286.416992 C248.727554,286.338409 259.400452,286.259796 270.556091,286.467163 C271.688293,286.841095 272.337799,286.929047 272.991028,287.429138 C272.649384,290.787201 272.303955,293.733124 271.958527,296.679077 z"/>
  <path opacity="1.000000" stroke="none" d=" M342.783966,106.272804 C342.783966,106.272804 342.894104,106.547668 342.982635,106.974564 C343.370728,107.607590 343.670319,107.813713 343.969879,108.019836 C343.969879,108.019836 344.000000,108.000000 343.913208,108.374527 C344.719666,110.636513 345.612946,112.523979 346.506226,114.411438 C346.506226,114.411438 346.659424,114.689415 346.699005,115.147446 C346.830536,115.795853 346.922516,115.986237 347.014465,116.176620 C348.857849,119.755547 350.701263,123.334465 352.747040,127.306290 C349.347046,128.319717 346.703674,130.186142 344.959869,125.407829 C343.512543,121.441887 339.459320,122.190674 336.330780,122.560654 C334.633820,122.761345 332.455872,124.212166 331.681244,125.711861 C330.349121,128.290955 329.057770,129.753464 326.177948,128.361496 C322.753418,126.706261 325.531433,124.878563 326.224457,123.243103 C328.003387,119.044807 329.933594,114.910614 332.154663,110.125061 C332.688904,108.606316 332.871796,107.713295 333.054718,106.820274 C333.054718,106.820274 333.124451,106.536842 333.418732,106.164963 C333.802063,105.131775 333.891144,104.470482 333.980194,103.809181 C333.980194,103.809181 334.049744,103.517410 334.456482,103.149124 C338.772766,101.065712 340.908447,103.374168 342.783966,106.272804 M341.133667,117.242599 C340.241211,114.484749 339.348755,111.726898 338.153229,108.032425 C336.503296,111.628609 335.394806,114.044609 334.194489,116.660782 C336.402649,116.912483 338.343170,117.133675 341.133667,117.242599 z" style="fill: rgb(24, 89, 177);"/>
  <path fill="#192530" opacity="1.000000" stroke="none" d=" M384.015778,348.352814 C384.402283,348.082703 384.933380,348.071838 385.145813,348.326691 C387.787384,351.495209 390.382599,354.702332 393.066895,357.994141 C395.170563,356.595337 396.368713,355.798645 397.905884,354.899658 C399.434509,352.405548 400.624146,350.013794 402.353271,347.308777 C407.688416,346.925537 407.882812,351.489197 410.031799,354.084473 C407.567871,360.285675 405.103943,366.486908 402.160126,372.699677 C397.604279,374.141479 394.702332,372.828644 393.125916,368.995453 C392.678680,367.908051 391.842072,366.980804 391.184082,365.980072 C388.793488,360.231903 386.402893,354.483734 384.015778,348.352814 z"/>
  <path fill="#1D2832" opacity="1.000000" stroke="none" d=" M206.006409,171.993652 C206.448776,171.990982 206.891159,171.988327 207.879517,172.240036 C209.290421,172.647766 210.155334,172.801117 211.020264,172.954468 C218.923859,173.181229 226.844879,173.811234 234.723938,173.470535 C238.879593,173.290817 242.966309,171.433365 247.075134,170.300735 C248.466568,169.917191 249.830338,169.433258 251.601547,168.997620 C247.207016,174.009811 241.320831,176.934540 234.426712,176.899887 C223.001572,176.842468 211.579910,176.257202 200.154068,176.031952 C197.727692,175.984131 195.289642,176.527039 192.006958,176.892410 C193.438171,179.844818 194.550797,182.140015 195.814606,184.751221 C191.748230,185.845566 189.865845,188.934326 188.264679,192.788376 C185.311295,187.193970 182.632614,181.384323 179.976669,175.288239 C181.681229,176.688065 183.248444,178.515808 185.088867,180.006226 C186.154205,180.868988 187.659515,181.188477 188.650513,181.616013 C189.180161,178.148682 189.590958,175.459488 190.469620,172.387054 C195.960464,172.000443 200.983444,171.997040 206.006409,171.993652 z"/>
  <path fill="#505A65" opacity="1.000000" stroke="none" d=" M272.423035,296.767822 C272.303955,293.733124 272.649384,290.787201 273.188721,287.337982 C273.641327,286.683044 273.830872,286.469879 273.951294,286.195251 C283.981171,286.163879 294.011047,286.132477 304.518921,286.577576 C305.079163,287.860107 305.161377,288.666077 305.243622,289.472076 C305.082428,291.429688 304.921204,293.387268 304.675354,296.372925 C293.989746,296.535492 283.438629,296.696014 272.423035,296.767822 z"/>
  <path fill="#192530" opacity="1.000000" stroke="none" d=" M293.023193,347.374023 C299.397217,342.852905 305.745056,338.705597 305.024963,329.574280 C306.045013,332.752533 306.518829,335.919189 306.992615,339.085876 C306.326508,342.434204 305.660400,345.782532 304.981934,350.005737 C304.974701,353.921539 304.979828,356.962402 304.984955,360.003296 C304.387604,362.912018 303.790253,365.820740 302.989044,369.721954 C301.143433,369.911896 297.788055,370.257202 294.212097,370.807343 C293.670654,367.298889 293.349731,363.585602 293.256226,359.266296 C293.346130,358.118927 293.208649,357.577576 293.071167,357.036255 C293.058350,356.574585 293.045563,356.112915 293.294434,355.067749 C293.386139,352.998962 293.216156,351.513641 293.046204,350.028351 C293.032410,349.269928 293.018677,348.511475 293.023193,347.374023 z"/>
  <path fill="#28333F" opacity="1.000000" stroke="none" d=" M205.976410,116.216675 C206.419479,116.180618 206.862564,116.144562 207.711746,116.431831 C209.088272,116.552711 210.058701,116.350258 211.029114,116.147812 C214.754944,115.480011 218.480789,114.812218 222.554962,114.476456 C219.217651,118.023872 220.921524,122.154488 220.875946,126.297058 C220.492371,127.367889 220.234085,128.150955 219.975800,128.934021 C217.165833,131.494278 214.355865,134.054535 210.999329,136.534164 C208.545410,136.502609 206.582153,136.282898 204.744019,136.664978 C202.114136,137.211639 199.575714,138.198227 197.042603,138.643707 C198.724747,134.526352 200.362534,130.762238 202.040222,126.644745 C202.796921,122.708061 208.932785,121.220535 205.976410,116.216675 z"/>
  <path fill="#303B45" opacity="1.000000" stroke="none" d=" M273.998932,317.068268 C280.636993,317.120392 284.881989,321.033722 287.490143,326.464966 C290.758972,333.271942 288.511505,339.376160 282.950623,344.771851 C280.204742,341.234100 278.090546,337.596893 275.976349,333.959717 C275.981232,333.523712 275.986115,333.087738 276.216858,332.149445 C275.961761,331.098511 275.480896,330.549866 275.000000,330.001221 C274.515503,329.681610 274.031006,329.362000 273.265442,328.527710 C272.369415,327.359283 271.802155,326.650818 271.129181,326.063477 C269.858093,324.954193 267.392761,323.852905 267.446899,322.858398 C267.574036,320.522156 268.423218,317.819122 272.047058,318.430176 C272.605255,318.524292 273.343811,317.548981 273.998932,317.068268 z"/>
  <path fill="#1E2C36" opacity="1.000000" stroke="none" d=" M350.929596,354.514893 C348.724396,356.292053 346.547333,357.602753 345.117737,358.463440 C343.005920,357.000824 341.346802,355.851746 339.381226,354.829468 C339.052704,348.163055 339.167664,341.365784 338.967346,334.577820 C338.792816,328.663971 343.026367,330.364044 346.217743,329.983490 C349.868347,329.548157 351.237701,330.859589 351.066315,334.665436 C350.775940,341.115021 350.968262,347.586273 350.929596,354.514893 z"/>
  <path fill="#24323D" opacity="1.000000" stroke="none" d=" M273.993896,211.999268 C275.781952,214.338654 277.570007,216.678024 279.556824,219.333191 C273.320526,225.359268 272.589508,228.383759 276.046967,234.993103 C274.916779,238.070938 272.814178,241.400620 269.586365,239.642792 C266.618774,238.026688 263.859009,234.500687 262.844604,231.243927 C261.769409,227.791901 262.859314,223.665512 263.001831,219.417603 C263.028656,218.832932 263.057281,218.664322 263.298035,218.125732 C263.737274,217.564438 263.904572,217.330353 264.012024,217.053497 C264.218781,216.788696 264.425568,216.523895 265.219849,216.132706 C268.536224,214.670624 271.265076,213.334946 273.993896,211.999268 z"/>
  <path fill="#303B45" opacity="1.000000" stroke="none" d=" M267.618164,171.041473 C269.350555,171.894424 270.765442,172.766464 272.117096,173.727402 C274.297760,175.277679 276.436798,176.886536 278.804443,178.746185 C277.733337,180.496445 276.451172,181.971207 275.059387,183.978790 C274.949707,184.511627 274.940338,184.950729 274.940338,184.950729 C274.940338,184.950729 274.467773,184.962997 274.002441,184.734985 C269.325073,185.144012 265.119598,186.235229 260.899261,186.295990 C256.270966,186.362595 251.628967,185.478836 246.655441,185.005463 C245.540024,184.664246 244.762085,184.326767 243.984161,183.989304 C251.746872,179.693024 259.509583,175.396729 267.618164,171.041473 z"/>
  <path fill="#28303B" opacity="1.000000" stroke="none" d=" M234.624069,152.731110 C227.743988,155.962265 223.061035,155.118011 220.452820,150.484253 C217.921570,145.987244 218.852768,142.020081 223.326599,138.241302 C226.759384,135.341812 231.047852,135.324799 234.660828,138.196274 C238.295273,141.084808 239.213684,146.002213 236.821747,150.208282 C236.341690,151.052429 235.558716,151.724319 234.624069,152.731110 z"/>
  <path fill="#505A65" opacity="1.000000" stroke="none" d=" M237.592560,286.307526 C238.365631,289.298462 238.676590,292.179962 239.004639,295.454834 C229.972534,295.914703 220.923355,295.981201 211.443848,295.601074 C211.558029,292.010101 208.309875,287.617157 213.975143,286.158722 C221.693588,286.171844 229.412018,286.184967 237.592560,286.307526 z"/>
  <path fill="#1E2C36" opacity="1.000000" stroke="none" d=" M246.363800,350.943848 C240.194260,351.923187 240.621094,346.456329 238.272583,343.213165 C238.795242,339.790192 239.550476,336.570465 240.401001,333.376068 C241.288116,330.044373 243.868881,329.745148 246.710968,330.013031 C250.311935,330.352478 253.699265,330.245789 255.536255,326.274719 C255.176727,329.642395 255.889328,331.832184 259.260040,333.101074 C260.198486,333.454315 260.463257,335.597015 261.037109,336.918793 C258.173706,336.918793 255.310287,336.918793 252.709854,336.918793 C250.851196,341.113220 248.729050,345.902283 246.363800,350.943848 z"/>
  <path fill="#1E2933" opacity="1.000000" stroke="none" d=" M202.000305,126.998131 C200.362534,130.762238 198.724747,134.526352 196.794006,138.543732 C196.029175,138.550110 195.557281,138.303223 195.085403,138.056320 C196.354843,135.389969 197.624298,132.723618 198.948746,129.941711 C194.568588,129.941711 190.555527,129.711685 186.582092,130.009796 C182.986923,130.279541 180.973846,128.869888 179.836777,125.581535 C178.553558,121.870575 177.082748,118.224480 175.282532,113.463058 C181.108627,114.009003 186.655685,114.528793 192.600281,115.469955 C191.552551,123.072235 192.409012,124.500610 199.165894,126.211121 C200.116196,126.451691 201.055771,126.734749 202.000305,126.998131 z"/>
  <path opacity="1.000000" stroke="none" d="M 340.669 167.544 C 341.58 167.272 342.189 167.125 342.798 166.978 C 342.911 167.197 343.024 167.416 343.137 167.635 C 341.914 168.364 340.751 169.231 339.456 169.798 C 335.149 171.688 334.032 171 334.15 166.361 C 334.269 161.719 334.649 157.083 334.855 152.442 C 334.912 151.156 334.759 149.861 334.685 148.167 C 319.796 149.122 308.824 143.015 304.389 129.051 C 300.785 117.701 302.225 105.659 310.861 95.935 C 309.944 98.118 308.858 100.88 307.611 102.855 C 302.497 110.947 302.958 119.829 305.508 128.131 C 306.885 132.613 310.313 136.177 314 139.641 C 314.887 140.474 316.81 142.496 321.678 143.072 C 327.259 146.563 326.729 146.035 332.722 145.202 C 335.447 144.824 338.024 150.407 337.556 154.09 C 337.102 157.671 336.992 161.342 337.253 164.936 C 337.324 165.917 339.277 166.762 340.669 167.544 Z" fill="#1959B1"/>
  <path fill="#171E25" opacity="1.000000" stroke="none" d=" M391.022247,366.272278 C391.842072,366.980804 392.678680,367.908051 393.125916,368.995453 C394.702332,372.828644 397.604279,374.141479 401.878540,372.919067 C399.152374,383.787292 395.014526,386.073242 378.979309,382.393555 C379.304077,380.011841 379.212463,377.343323 380.154510,375.111115 C380.665558,373.900299 382.882294,372.891479 384.425140,372.735291 C388.367188,372.336243 391.666260,371.726257 391.022247,366.272278 z"/>
  <path fill="#1E2933" opacity="1.000000" stroke="none" d=" M410.316223,353.871704 C407.882812,351.489197 407.688416,346.925537 402.522308,346.989227 C403.363098,343.086212 404.788391,339.240265 405.726776,335.278961 C406.703979,331.153595 408.933167,329.454071 413.150330,329.988037 C415.240601,330.252716 417.392059,330.034027 420.989960,330.034027 C417.263641,338.507538 413.932129,346.083221 410.316223,353.871704 z"/>
  <path fill="#141E28" opacity="1.000000" stroke="none" d=" M223.803482,364.190979 C225.219070,365.060364 227.178238,365.970642 227.410721,367.205902 C228.063995,370.676819 228.742401,373.476349 233.183746,373.359375 C234.008087,373.337646 234.869598,374.726166 235.881210,375.800720 C232.620361,383.359375 226.917160,385.252716 219.380798,383.681885 C215.567856,382.887146 213.681000,381.482361 214.963242,377.340393 C215.439789,375.801056 215.413330,374.105988 215.612061,372.515533 C226.459091,370.752625 226.459091,370.752625 223.803482,364.190979 z"/>
  <path fill="#303B45" opacity="1.000000" stroke="none" d=" M194.973724,138.291626 C195.557281,138.303223 196.029175,138.550110 196.749634,138.896973 C199.575714,138.198227 202.114136,137.211639 204.744019,136.664978 C206.582153,136.282898 208.545410,136.502609 210.726715,136.725494 C210.333298,141.020325 209.449280,145.023178 209.075653,149.073135 C208.831039,151.724548 207.910599,153.015457 205.205200,152.963028 C201.753601,152.896164 198.300385,152.913940 194.403839,152.381531 C193.953537,148.303909 193.947266,144.739960 193.940979,141.176025 C194.248001,140.292984 194.555023,139.409958 194.973724,138.291626 z"/>
  <path fill="#303B45" opacity="1.000000" stroke="none" d=" M213.693573,285.847595 C208.309875,287.617157 211.558029,292.010101 211.007950,295.567932 C207.336349,296.246704 203.670303,296.511932 199.414062,296.401703 C196.883591,295.683319 194.943314,295.340454 192.993408,294.636841 C191.000626,291.232452 189.017471,288.188782 187.034332,285.145111 C195.826889,285.275574 204.619431,285.406036 213.693573,285.847595 z"/>
  <path fill="#16232D" opacity="1.000000" stroke="none" d=" M153.045151,283.036926 C161.466232,284.729187 163.112839,287.779663 159.083893,293.733612 C156.059280,298.203369 151.428635,295.477966 147.566559,295.801392 C146.361588,295.902222 144.464310,293.806885 143.735916,292.303986 C142.053558,288.832855 143.579742,286.140625 146.924683,284.644501 C148.709824,283.846069 150.722321,283.555908 153.045151,283.036926 z"/>
  <path fill="#1E2C36" opacity="1.000000" stroke="none" d=" M218.095306,347.236542 C217.467133,342.275299 216.947052,337.541168 216.406372,332.809326 C216.331726,332.156097 216.154953,331.514496 216.016617,330.458618 C216.339752,330.035309 216.681000,330.066040 217.002274,329.999786 C222.798950,328.804199 225.756088,331.239807 226.949661,336.981476 C227.818405,341.160492 229.589554,345.151917 230.972443,349.612579 C227.113953,349.232697 223.241364,348.467194 219.140411,347.922302 C218.604111,347.990021 218.365723,347.763824 218.095306,347.236542 z"/>
  <path fill="#303B45" opacity="1.000000" stroke="none" d=" M318.469757,398.999268 C297.038055,399.001984 276.074890,399.010345 255.111725,398.985535 C253.298203,398.983398 251.484924,398.762238 249.356384,398.383606 C253.877350,397.782898 258.712708,397.160217 263.549744,397.146332 C291.083435,397.067261 318.617523,397.133484 346.616211,397.263184 C345.498199,397.913452 343.924561,398.881714 342.331238,398.915192 C334.536469,399.078888 326.736450,398.993469 318.469757,398.999268 z"/>
  <path fill="#192530" opacity="1.000000" stroke="none" d=" M220.397079,128.954742 C220.234085,128.150955 220.492371,127.367889 221.264252,126.244812 C223.860901,125.588058 225.943954,125.271301 228.026993,124.954552 C241.468231,124.131119 252.659454,132.924713 250.990051,149.547668 C247.572739,153.668350 244.158401,157.335281 240.379990,161.006119 C243.589722,157.282257 246.404190,153.359009 247.080978,147.852600 C248.893661,133.104599 235.287979,126.225204 223.712814,128.268433 C222.736801,128.440720 221.782669,128.736862 220.397079,128.954742 z"/>
  <path fill="#24323D" opacity="1.000000" stroke="none" d=" M261.425873,336.932068 C260.463257,335.597015 260.198486,333.454315 259.260040,333.101074 C255.889328,331.832184 255.176727,329.642395 255.883499,326.147156 C256.421021,319.681915 266.445648,314.505249 273.720886,316.790192 C273.343811,317.548981 272.605255,318.524292 272.047058,318.430176 C268.423218,317.819122 267.574036,320.522156 267.446899,322.858398 C267.392761,323.852905 269.858093,324.954193 271.129181,326.063477 C271.802155,326.650818 272.369415,327.359283 273.017944,328.372620 C267.406616,327.450562 265.108368,328.937927 263.909058,334.325592 C263.690887,335.305695 262.536713,336.077454 261.425873,336.932068 z"/>
  <path fill="#3A4551" opacity="1.000000" stroke="none" d=" M234.533768,399.000854 C235.670425,401.698486 236.338409,404.393280 237.010620,407.468781 C236.564575,407.899719 236.114319,407.949951 235.036942,407.712006 C231.614838,407.589691 228.819885,407.755554 226.024918,407.921448 C225.260941,407.940765 224.496964,407.960114 223.073898,407.691162 C220.609467,407.272217 218.804123,407.141602 216.998779,407.010986 C213.919083,401.753052 215.341888,399.036926 221.209610,399.008484 C225.494690,398.987732 229.779922,399.000305 234.533768,399.000854 z"/>
  <path fill="#24323D" opacity="1.000000" stroke="none" d=" M206.159576,171.640305 C200.983444,171.997040 195.960464,172.000443 190.471191,172.005676 C188.752182,170.592941 187.499481,169.178375 186.246765,167.763809 C188.249969,166.590164 190.525742,164.147049 192.199799,164.506470 C195.711594,165.260437 197.877518,164.307404 199.932434,161.446793 C201.075150,161.087906 202.145721,161.064148 203.616302,161.084229 C204.531128,164.571014 208.980972,167.124466 206.159576,171.640305 z"/>
  <path fill="#141E28" opacity="1.000000" stroke="none" d=" M314.650665,294.599426 C313.180023,292.020813 312.002228,289.701202 310.381622,286.509460 C314.463898,285.577911 317.862030,284.533783 321.337036,284.085785 C324.753754,283.645355 328.667664,285.098877 328.273773,288.556152 C327.970459,291.218597 324.702515,294.157959 322.020874,295.707550 C320.374939,296.658691 317.349487,295.222595 314.650665,294.599426 z"/>
  <path fill="#171E25" opacity="1.000000" stroke="none" d=" M312.921448,155.694519 C309.659729,153.817825 306.429932,151.568512 302.280548,148.678772 C301.821838,154.810577 301.590485,160.319153 300.924316,165.774628 C300.598358,168.444138 299.463654,171.014893 298.380676,173.814941 C297.727112,168.451691 297.027832,162.895752 297.151703,157.358246 C297.271515,152.000885 298.238678,146.662506 298.830627,141.343048 C299.066406,141.284271 299.318939,141.156174 299.376892,141.216156 C303.912170,145.908600 308.432159,150.615814 312.921448,155.694519 z"/>
  <path fill="#192530" opacity="1.000000" stroke="none" d=" M244.460083,198.957031 C246.117722,194.480743 250.512634,196.340759 253.565536,196.236481 C262.871307,195.918579 272.212372,196.857117 281.540985,196.885315 C285.843475,196.898315 290.148926,195.931564 294.699280,195.642471 C288.411804,201.163681 280.625732,199.975098 273.141876,199.896713 C263.735382,199.798172 254.332993,199.306610 244.460083,198.957031 z"/>
  <path fill="#141E28" opacity="1.000000" stroke="none" d=" M352.975647,287.145660 C352.153107,294.158417 348.877228,296.907501 342.566589,294.978241 C340.447754,294.330444 338.361572,290.871552 337.876587,288.382629 C337.436005,286.121429 338.996246,283.611084 342.676727,283.894562 C346.360748,284.178284 350.515350,282.101654 352.975647,287.145660 z"/>
  <path fill="#192530" opacity="1.000000" stroke="none" d=" M183.033081,295.908264 C180.725571,295.930206 178.372681,296.248596 176.121246,295.904114 C172.798859,295.395721 170.936813,293.277802 171.008148,289.750122 C171.079666,286.212433 172.801880,284.060608 176.406372,284.093750 C179.004700,284.117615 181.598083,284.678558 184.596054,285.437012 C184.343323,289.218811 183.688202,292.563538 183.033081,295.908264 z"/>
  <path fill="#24323D" opacity="1.000000" stroke="none" d=" M275.733917,334.212769 C278.090546,337.596893 280.204742,341.234100 282.645081,344.927551 C280.513275,347.554749 278.055389,350.125641 275.306030,352.852417 C272.665436,351.749847 270.316284,350.491425 267.792633,349.139496 C268.136322,347.871765 268.562012,346.301453 268.993286,344.364899 C270.133423,342.757080 271.268036,341.515533 272.907593,340.020203 C273.691406,339.567139 273.884399,339.304657 273.991486,338.979004 C274.491486,337.474609 274.991486,335.970184 275.733917,334.212769 z"/>
  <path fill="#1D2832" opacity="1.000000" stroke="none" d=" M246.314316,232.928253 C244.070114,232.973557 242.149902,233.327927 240.443710,232.875427 C238.744461,232.424789 236.461777,231.500732 235.899689,230.166946 C235.305115,228.756073 235.959335,226.296783 236.917969,224.864197 C238.804245,222.045364 246.866333,222.168106 249.143051,224.733093 C251.893738,227.832016 251.294647,229.857346 246.314316,232.928253 z"/>
  <path fill="#293742" opacity="1.000000" stroke="none" d=" M96.139664,379.392639 C100.883347,382.482269 106.077469,385.465790 106.967682,392.142639 C107.112976,393.232391 108.796722,394.040802 109.504257,395.148621 C110.768051,397.127350 111.829811,399.235107 112.954300,401.687592 C102.482765,398.304321 98.203270,389.853394 96.139664,379.392639 z"/>
  <path fill="#303B45" opacity="1.000000" stroke="none" d=" M202.040222,126.644745 C201.055771,126.734749 200.116196,126.451691 199.165894,126.211121 C192.409012,124.500610 191.552551,123.072235 193.027710,115.524216 C194.735184,115.153870 196.412750,115.150627 198.571991,115.456451 C199.699509,115.860580 200.345367,115.955666 200.991241,116.050743 C202.377960,116.069199 203.764694,116.087654 205.563904,116.161392 C208.932785,121.220535 202.796921,122.708061 202.040222,126.644745 z"/>
  <path opacity="1.000000" stroke="none" d="M 360.364 127.485 C 357.565 128.3 355.573 128.813 355.596 125.275 C 355.643 118.323 355.953 111.371 356.222 104.422 C 356.236 104.07 356.281 100.26 359.46 102.861 C 360.77 106.184 360.547 109.651 360.542 113.974 C 360.788 119.338 360.466 123.024 360.364 127.485 Z" style="fill: rgb(24, 89, 177);"/>
  <path opacity="1.000000" stroke="none" d="M 367.477 102.907 C 367.309 100.948 368.786 99.636 370.305 99.291 C 372.062 98.892 374.042 101.168 373.782 103.014 C 373.257 106.747 372.635 113.522 371.766 116.174 C 371.178 117.968 370.14 118.7 369.349 116.129 C 368.849 114.503 367.717 104.867 367.477 102.907 Z" style="fill: rgb(24, 89, 177);"/>
  <path fill="#505A65" opacity="1.000000" stroke="none" d=" M407.214813,315.361572 C413.133606,314.398529 414.300110,312.465515 413.232605,304.814819 C415.413452,309.846039 417.511017,315.275848 419.618683,320.731812 C410.617004,323.695923 408.472137,322.690704 407.214813,315.361572 z"/>
  <path fill="#303B45" opacity="1.000000" stroke="none" d=" M228.114182,124.710693 C225.943954,125.271301 223.860901,125.588058 221.389557,125.957054 C220.921524,122.154488 219.217651,118.023872 222.956940,114.464622 C225.383484,114.098824 227.756424,114.076874 230.571121,114.114487 C230.075714,117.604980 229.138550,121.035912 228.114182,124.710693 z"/>
  <path fill="#141E28" opacity="1.000000" stroke="none" d=" M152.679703,329.175018 C154.571701,333.265198 149.053421,332.251678 148.524567,335.114868 C148.306503,336.295471 147.093414,337.292297 146.332886,338.372711 C147.756866,338.763977 149.180847,339.155212 150.806580,339.789734 C149.312866,340.969574 147.617432,341.906158 145.387558,343.138000 C143.224121,340.473114 141.108871,337.867584 138.268860,334.369324 C143.510483,332.479065 147.918076,330.889587 152.679703,329.175018 z"/>
  <path fill="#293742" opacity="1.000000" stroke="none" d=" M151.468582,408.695770 C151.923416,408.061920 152.831696,407.084747 153.746933,407.078186 C166.167816,406.989075 178.589737,407.023163 191.011124,407.083618 C191.576035,407.086365 192.138306,407.626373 192.843567,408.253723 C179.298645,408.662079 165.611938,408.732880 151.468582,408.695770 z"/>
  <path opacity="1.000000" stroke="none" d=" M323.952728,85.680145 C325.305573,85.003235 326.986511,84.088226 328.674225,84.075508 C343.796387,83.961586 358.919952,83.965645 374.042694,84.028030 C378.981506,84.048409 383.411957,85.475319 387.576050,90.443840 C384.658142,89.622581 382.279327,89.678085 381.208405,88.522026 C377.259674,84.259506 372.308258,85.014992 367.440521,85.011314 C357.635437,85.003922 347.829224,84.921295 338.025757,85.046890 C333.442444,85.105606 328.864410,85.576447 323.952728,85.680145 z" style="fill: rgb(24, 89, 177);"/>
  <path fill="#171E25" opacity="1.000000" stroke="none" d=" M191.794861,361.733643 C189.668686,361.842712 187.341049,361.682129 184.476807,361.484558 C185.388748,364.659637 186.185806,367.434753 186.991608,370.586578 C184.019669,369.450653 181.038986,367.938049 177.318466,366.049957 C180.263412,362.609039 182.382538,360.133057 184.532364,357.621155 C186.949112,358.936401 189.271271,360.200165 191.794861,361.733643 z"/>
  <path fill="#5F646E" opacity="1.000000" stroke="none" d=" M416.832947,374.580383 C413.371826,375.594788 410.126343,376.274170 406.488831,376.963409 C406.013306,369.356812 406.404755,369.123230 418.089966,370.314941 C417.726898,371.685120 417.387726,372.965240 416.832947,374.580383 z"/>
  <path fill="#464E59" opacity="1.000000" stroke="none" d=" M193.589081,141.181549 C193.947266,144.739960 193.953537,148.303909 193.940308,152.302094 C190.419998,153.407669 187.799011,152.709396 187.187698,148.604385 C186.483383,143.874802 189.813385,142.510071 193.589081,141.181549 z"/>
  <path fill="#303B45" opacity="1.000000" stroke="none" d=" M373.061340,291.915314 C373.061371,292.099121 373.061432,292.282898 372.673523,292.698547 C368.675415,292.641907 365.065277,292.353394 361.455139,292.064880 C359.064178,287.414734 359.861511,285.716736 365.611145,284.450928 C366.479523,288.997406 368.198120,291.472290 373.000427,290.262573 C373.097137,291.023865 373.079224,291.469574 373.061340,291.915314 z"/>
  <path fill="#24323D" opacity="1.000000" stroke="none" d=" M183.430664,295.934692 C183.688202,292.563538 184.343323,289.218811 185.011505,285.474030 C185.472214,285.065460 185.919830,285.056946 186.700897,285.096741 C189.017471,288.188782 191.000626,291.232452 192.592194,294.640808 C190.473648,295.314117 188.746658,295.622681 187.019669,295.931274 C185.955856,295.941223 184.892044,295.951172 183.430664,295.934692 z"/>
  <path opacity="1.000000" stroke="none" d=" M373.421936,291.925415 C373.079224,291.469574 373.097137,291.023865 373.054565,289.923645 C373.343048,288.197632 373.691956,287.126129 374.040863,286.054626 C376.078979,285.977661 378.117096,285.900696 380.451233,286.000671 C380.451202,288.762756 380.155121,291.347900 379.868164,294.335449 C377.845703,293.803711 375.814117,292.869598 373.421936,291.925415 z" style="fill: rgb(95, 100, 110);"/>
  <path opacity="1.000000" stroke="none" d="M 368.877 122.289 C 370.481 119.371 371.71 120.746 372.714 122.158 C 373.57 123.362 373.735 124.993 372.589 126.855 C 371.633 128.409 370.339 128.562 369.367 126.673 C 368.392 124.673 368.444 124.773 368.877 122.289 Z" style="fill: rgb(24, 89, 177);"/>
  <path fill="#192530" opacity="1.000000" stroke="none" d=" M275.164001,185.227844 C274.940338,184.950729 274.949707,184.511627 274.952698,184.292725 C280.465302,186.548416 285.356537,184.226837 290.645569,182.064301 C290.913971,182.990265 291.123047,184.582733 290.656860,184.813980 C285.710236,187.267776 280.695831,190.527267 275.164001,185.227844 z"/>
  <path fill="#1D2832" opacity="1.000000" stroke="none" d=" M373.820007,285.745331 C373.691956,287.126129 373.343048,288.197632 372.939972,289.608093 C368.198120,291.472290 366.479523,288.997406 365.983704,284.470337 C368.505890,284.544342 371.052521,284.990204 373.820007,285.745331 z"/>
  <path fill="#1D2832" opacity="1.000000" stroke="none" d=" M243.520355,183.988525 C244.762085,184.326767 245.540024,184.664246 246.656921,185.337097 C246.994400,186.114929 246.992920,186.557358 246.991455,186.999802 C241.226074,186.550629 235.460678,186.101440 229.387543,185.400116 C233.738708,184.761230 238.397629,184.374481 243.520355,183.988525 z"/>
  <path fill="#3F4B57" opacity="1.000000" stroke="none" d=" M361.512848,292.486877 C365.065277,292.353394 368.675415,292.641907 372.625793,292.970093 C371.599182,297.297974 367.937073,295.954407 365.110657,295.841797 C363.893585,295.793335 362.748413,293.941467 361.512848,292.486877 z"/>
  <path fill="#192530" opacity="1.000000" stroke="none" d=" M187.316086,296.215363 C188.746658,295.622681 190.473648,295.314117 192.601837,295.001526 C194.943314,295.340454 196.883591,295.683319 198.967453,296.352234 C195.278198,296.618652 191.445358,296.559052 187.316086,296.215363 z"/>
  <path fill="#293742" opacity="1.000000" stroke="none" d=" M113.801208,389.725342 C108.696411,391.015350 107.972282,390.233643 109.018829,384.331238 C110.582245,385.784698 112.125610,387.605164 113.801208,389.725342 z"/>
  <path fill="#293742" opacity="1.000000" stroke="none" d=" M115.197365,404.287659 C116.940414,404.064301 118.948273,403.822632 120.744400,404.330200 C121.977760,404.678772 122.916992,406.068115 124.006699,407.336243 C121.141098,406.649780 118.256500,405.619293 115.197365,404.287659 z"/>
  <path fill="#293742" opacity="1.000000" stroke="none" d=" M127.406853,407.945129 C130.317703,404.125244 133.521179,407.478424 136.883423,408.385010 C133.936371,408.482178 130.875992,408.242126 127.406853,407.945129 z"/>
  <path fill="#232D36" opacity="1.000000" stroke="none" d=" M216.607071,83.040428 C215.494965,86.286018 213.091446,87.483566 209.314392,86.135857 C211.392273,84.997841 213.796417,84.007889 216.607071,83.040428 z"/>
  <path fill="#1E2933" opacity="1.000000" stroke="none" d=" M274.106934,211.738754 C271.265076,213.334946 268.536224,214.670624 265.450043,216.022766 C268.140961,214.026382 271.189240,212.013535 274.610229,209.979614 C274.728638,210.465103 274.474304,210.971680 274.106934,211.738754 z"/>
  <path fill="#293742" opacity="1.000000" stroke="none" d=" M226.318298,408.175781 C228.819885,407.755554 231.614838,407.589691 234.697052,407.688629 C232.193436,408.112305 229.402573,408.271210 226.318298,408.175781 z"/>
  <path fill="#293742" opacity="1.000000" stroke="none" d=" M216.998627,407.268951 C218.804123,407.141602 220.609467,407.272217 222.692871,407.658142 C221.165131,408.104797 219.359360,408.296112 217.274506,408.265167 C216.996460,407.870880 216.997467,407.698883 216.998627,407.268951 z"/>
  <path fill="#171E25" opacity="1.000000" stroke="none" d=" M132.784119,89.686111 C130.969315,90.298889 128.899429,90.654938 126.423866,91.011612 C128.188477,90.484619 130.358765,89.957001 132.784119,89.686111 z"/>
  <path fill="#303B45" opacity="1.000000" stroke="none" d=" M373.544495,397.151428 C371.530487,397.379150 369.080536,397.529236 366.331970,397.457123 C368.391754,397.181213 370.750153,397.127502 373.544495,397.151428 z"/>
  <path fill="#293742" opacity="1.000000" stroke="none" d=" M108.082336,382.550171 C107.437744,381.756348 106.762398,380.621277 106.134003,379.079346 C106.804504,379.851288 107.428040,381.030121 108.082336,382.550171 z"/>
  <path fill="#464E59" opacity="1.000000" stroke="none" d=" M273.770203,285.952271 C273.830872,286.469879 273.641327,286.683044 273.184937,286.925873 C272.337799,286.929047 271.688293,286.841095 271.022614,286.514404 C271.867310,286.086884 272.728241,285.898071 273.770203,285.952271 z"/>
  <path fill="#293742" opacity="1.000000" stroke="none" d=" M119.856308,394.727417 C119.019356,394.567993 118.045143,394.123749 117.034592,393.365234 C117.905182,393.514862 118.812111,393.978729 119.856308,394.727417 z"/>
  <path fill="#141E28" opacity="1.000000" stroke="none" d=" M181.726379,336.183289 C181.588303,337.278137 181.181427,338.561432 180.431717,339.928833 C180.545090,338.799225 181.001328,337.585480 181.726379,336.183289 z"/>
  <path fill="#464E59" opacity="1.000000" stroke="none" d=" M305.508057,289.275330 C305.161377,288.666077 305.079163,287.860107 304.979279,286.653687 C305.231934,287.195038 305.502228,288.136810 305.508057,289.275330 z"/>
  <path fill="#1D2832" opacity="1.000000" stroke="none" d=" M334.675171,183.118500 C334.611847,184.021561 334.200867,184.948242 333.473755,185.949570 C333.547546,185.063507 333.937531,184.102814 334.675171,183.118500 z"/>
  <path fill="#1E2933" opacity="1.000000" stroke="none" d=" M210.648560,116.097382 C210.058701,116.350258 209.088272,116.552711 208.045410,116.447922 C208.737976,116.109428 209.502975,116.078194 210.648560,116.097382 z"/>
  <path fill="#1E2933" opacity="1.000000" stroke="none" d=" M293.025940,350.439087 C293.216156,351.513641 293.386139,352.998962 293.309448,354.721588 C293.043732,353.589203 293.024719,352.219513 293.025940,350.439087 z"/>
  <path fill="#1E2933" opacity="1.000000" stroke="none" d=" M199.717590,210.044830 C199.460678,210.496246 198.903259,210.961029 198.171570,211.208160 C198.470551,210.679733 198.943832,210.368973 199.717590,210.044830 z"/>
  <path fill="#1D2832" opacity="1.000000" stroke="none" d=" M199.815216,184.902145 C199.408340,185.248703 198.870377,185.368698 198.187576,185.294098 C198.589874,184.958176 199.136993,184.816879 199.815216,184.902145 z"/>
  <path fill="#1E2933" opacity="1.000000" stroke="none" d=" M200.805450,115.816025 C200.345367,115.955666 199.699509,115.860580 198.988327,115.512634 C199.488571,115.366936 200.054123,115.474121 200.805450,115.816025 z"/>
  <path fill="#293742" opacity="1.000000" stroke="none" d=" M112.975815,402.372711 C113.579002,402.486633 114.240372,402.912506 114.956711,403.656799 C114.352448,403.545044 113.693214,403.114838 112.975815,402.372711 z"/>
  <path fill="#24323D" opacity="1.000000" stroke="none" d=" M275.020508,330.299988 C275.480896,330.549866 275.961761,331.098511 276.224548,331.822357 C275.684631,331.531281 275.362793,331.065002 275.020508,330.299988 z"/>
  <path fill="#5F646E" opacity="1.000000" stroke="none" d=" M416.185852,378.532715 C416.115845,378.223389 416.262329,377.833221 416.564453,377.300751 C416.614197,377.589630 416.508270,378.020752 416.185852,378.532715 z"/>
  <path fill="#5F646E" opacity="1.000000" stroke="none" d=" M405.702393,377.900421 C405.784515,378.321594 405.616364,378.957764 405.186615,379.796082 C405.100677,379.370605 405.276398,378.743011 405.702393,377.900421 z"/>
  <path fill="#1E2933" opacity="1.000000" stroke="none" d=" M293.049805,357.355835 C293.208649,357.577576 293.346130,358.118927 293.285522,358.806946 C293.067719,358.527557 293.048096,358.101501 293.049805,357.355835 z"/>
  <path fill="#16232D" opacity="1.000000" stroke="none" d=" M273.767242,339.084717 C273.884399,339.304657 273.691406,339.567139 273.188629,339.872925 C273.071075,339.653076 273.263824,339.390076 273.767242,339.084717 z"/>
  <path fill="#1E2C36" opacity="1.000000" stroke="none" d=" M213.744583,330.158508 C213.850098,330.373932 213.658722,330.614319 213.178131,330.893860 C213.072983,330.685425 213.259232,330.435577 213.744583,330.158508 z"/>
  <path fill="#1E2933" opacity="1.000000" stroke="none" d=" M263.796631,217.134003 C263.904572,217.330353 263.737274,217.564438 263.327484,217.870895 C263.155060,217.652359 263.300537,217.395172 263.796631,217.134003 z"/>
  <path fill="#1E2933" opacity="1.000000" stroke="none" d=" M200.774582,209.162506 C200.873444,209.374542 200.683746,209.610519 200.229050,209.903458 C200.092896,209.679993 200.266891,209.422028 200.774582,209.162506 z"/>
  <path fill="#16232D" opacity="1.000000" stroke="none" d=" M104.242569,371.840759 C104.145386,371.623047 104.347282,371.383636 104.845078,371.114990 C104.949524,371.335175 104.749748,371.579559 104.242569,371.840759 z"/>
  <path fill="#293742" opacity="1.000000" stroke="none" d=" M100.746262,377.013977 C100.728310,377.134308 100.465027,377.237183 100.106949,377.196045 C100.012161,377.052002 100.500931,376.996521 100.746262,377.013977 z"/>
  <path fill="#293742" opacity="1.000000" stroke="none" d=" M105.964005,377.751953 C105.779892,377.781891 105.512657,377.558502 105.153976,377.085510 C105.335320,377.056824 105.608101,377.277740 105.964005,377.751953 z"/>
  <path fill="#293742" opacity="1.000000" stroke="none" d=" M108.977608,383.723389 C108.715202,383.864807 108.457397,383.667084 108.168503,383.154358 C108.351456,383.109039 108.633049,383.290680 108.977608,383.723389 z"/>
  <path fill="#24323D" opacity="1.000000" stroke="none" d=" M333.999054,208.000702 C333.886841,207.870560 333.775604,207.739716 333.664337,207.608887 C333.741974,207.654541 333.819641,207.700195 333.949249,207.872009 C334.001221,207.998169 334.000000,208.000000 333.999054,208.000702 z"/>
  <path fill="#1D2832" opacity="1.000000" stroke="none" d=" M178.220062,168.820923 C177.688919,168.527863 177.372147,168.057678 177.033661,167.291519 C177.486115,167.544952 177.960281,168.094360 178.220062,168.820923 z"/>
  <path fill="#293742" opacity="1.000000" stroke="none" d=" M114.464180,397.521606 C114.441605,397.479553 114.486755,397.563629 114.464180,397.521606 z"/>
  <path fill="#28333F" opacity="1.000000" stroke="none" d=" M247.294220,187.152344 C246.992920,186.557358 246.994400,186.114929 246.994415,185.340851 C251.628967,185.478836 256.270966,186.362595 260.899261,186.295990 C265.119598,186.235229 269.325073,185.144012 273.766296,184.744507 C274.104919,188.302841 272.328735,189.866409 269.333893,191.143173 C261.130432,194.640518 253.930054,193.762573 247.294220,187.152344 z"/>
  <path fill="#16232D" opacity="1.000000" stroke="none" d=" M321.204834,331.830811 C320.677246,331.529877 320.368622,331.054932 320.044922,330.283875 C320.494476,330.544067 320.959106,331.100403 321.204834,331.830811 z"/>
  <path fill="#16232D" opacity="1.000000" stroke="none" d=" M317.976746,328.610718 C317.516632,328.648010 317.014282,328.412811 316.265076,328.043945 C316.657013,328.052887 317.295746,328.195557 317.976746,328.610718 z"/>
  <path fill="#000000" opacity="1.000000" stroke="none" d=" M137.998001,360.997559 C138.085052,360.965271 138.174118,360.935455 138.134033,360.954773 C138.004883,361.003937 138.000000,361.000000 137.998001,360.997559 z"/>
  <path fill="#16232D" opacity="1.000000" stroke="none" d=" M364.989136,345.266815 C365.038300,345.266541 364.939941,345.267120 364.989136,345.266815 z"/>
  <path fill="#24323D" opacity="1.000000" stroke="none" d=" M211.004761,172.603058 C210.155334,172.801117 209.290421,172.647766 208.211273,172.237076 C208.459793,171.392303 208.922546,170.804855 209.385315,170.217407 C209.919968,170.895508 210.454620,171.573593 211.004761,172.603058 z"/>
  <path fill="#24323D" opacity="1.000000" stroke="none" d=" M271.526703,354.541534 C271.478424,354.568848 271.574982,354.514221 271.526703,354.541534 z"/>
</svg>