<?xml version="1.0" encoding="utf-8"?>
<svg version="1.1" id="Layer_1" xmlns="http://www.w3.org/2000/svg" x="0px" y="0px" width="100%" viewBox="0 0 170 130" enable-background="new 0 0 500 500" xmlns:bx="https://boxy-svg.com">
  <defs>
    <linearGradient gradientUnits="userSpaceOnUse" bx:pinned="true" id="color-0">
      <stop style="stop-color: #222831;"/>
    </linearGradient>
    <linearGradient gradientUnits="userSpaceOnUse" bx:pinned="true" id="color-1">
      <stop style="stop-color: #393e46;"/>
    </linearGradient>
    <linearGradient gradientUnits="userSpaceOnUse" bx:pinned="true" id="color-2">
      <stop style="stop-color: #00adb5;"/>
    </linearGradient>
    <linearGradient gradientUnits="userSpaceOnUse" bx:pinned="true" id="color-3">
      <stop style="stop-color: #eeeeee;"/>
    </linearGradient>
  </defs>
  <path fill="#1D2832" opacity="1.000000" stroke="none" d="M 131.877 99.322 C 128.728 103.556 126.11 108.358 122.321 111.911 C 113.695 120.003 103.189 125.043 91.579 127.145 C 76.598 129.859 62.183 128.378 48.66 120.431 C 39.576 115.092 31.888 108.264 26.046 99.733 C 20.303 91.347 16.995 81.821 15.997 71.477 C 15.315 64.409 16.094 57.597 17.662 50.559 C 18.104 51.851 18.512 53.343 18.407 54.798 C 18.226 57.309 17.409 59.797 17.418 62.293 C 17.456 72.122 19.183 81.584 24.239 90.217 C 24.597 90.827 24.547 91.674 24.902 92.287 C 26.793 95.556 28.754 98.786 30.859 102.312 C 32.364 99.922 33.353 98.351 34.342 96.78 C 36.669 99.432 38.917 102.157 41.337 104.721 C 49.214 113.071 59.305 116.937 70.342 118.809 C 82.714 120.909 94.492 118.528 105.604 113.252 C 117.39 107.657 124.869 97.761 129.773 86.005 C 131.87 80.979 132.779 75.457 134.553 69.999 C 134.765 71.592 134.748 73.36 134.518 75.1 C 134.172 77.703 134.537 79.911 137.84 81.466 C 136.538 81.85 135.753 82.082 134.936 82.234 C 134.854 82.127 134.806 82.098 134.757 82.069 C 134.826 82.151 134.897 82.234 134.967 82.57 C 134.438 84.335 134.005 85.889 133.362 87.351 C 132.084 90.253 130.478 93.029 129.427 96.006 C 128.824 97.714 129.102 99.669 131.877 99.322 Z" style=""/>
  <path opacity="1.000000" stroke="none" d="M 2.767 10.591 C 3.092 10.003 3.416 9.416 4.207 8.783 C 5.975 8.514 7.277 8.29 8.579 8.066 C 11.482 10.515 14.977 10.037 18.351 9.963 C 23.041 9.858 26.523 11.732 28.245 16.13 C 31.4 24.186 34.393 32.306 37.401 40.419 C 38.74 44.029 39.871 47.72 41.293 51.296 C 41.563 51.976 42.725 52.632 43.528 52.705 C 45.707 52.902 47.914 52.778 50.357 53.015 C 49.357 54.836 47.995 55.435 45.786 54.961 C 44.733 54.735 43.303 56.272 42.042 57.01 C 42.83 57.9 43.618 58.789 44.405 59.918 C 44.146 61.85 43.887 63.541 43.554 65.721 C 42.931 65.453 41.984 65.252 41.315 64.71 C 40.157 63.772 39.171 62.622 38.088 61.34 C 37.66 60.008 37.26 58.897 36.994 57.674 C 36.831 57.218 36.533 56.872 36.203 56.294 C 33.942 50.259 31.632 44.487 29.503 38.648 C 27.479 33.102 25.781 27.433 23.652 21.93 C 22.915 20.024 21.606 17.374 20.049 16.955 C 16.897 16.107 13.321 16.073 10.063 16.598 C 6.809 17.122 5.716 16.918 4.721 13.752 C 4.362 12.607 3.435 11.64 2.767 10.591 Z" style="fill: rgba(54, 64, 73, 0.98);"/>
  <path opacity="1.000000" stroke="none" d="M 114.922 71.055 C 113.565 72.26 112.207 73.465 110.473 74.533 C 107.389 74.725 104.681 75.333 101.975 75.325 C 96.108 75.307 90.233 74.717 84.381 74.917 C 82.46 74.982 79.696 73.813 78.359 76.611 C 74.789 76.616 71.218 76.622 67.283 76.383 C 64.239 75.683 61.567 74.936 58.877 74.863 C 56.593 74.801 54.251 75.369 52.001 75.924 C 49.105 76.638 44.605 75.217 43.311 72.748 C 44.319 70.325 45.503 68.382 48.155 67.893 C 48.445 67.889 48.736 67.886 49.335 68.02 C 49.982 68.082 50.32 68.006 50.658 67.931 C 56.568 67.925 62.477 67.919 68.877 68.087 C 72.994 68.543 76.62 68.825 80.437 69.204 C 84.61 73.361 89.138 73.913 94.298 71.714 C 96.181 70.911 97.299 69.927 97.378 67.833 C 97.526 67.826 97.824 67.819 97.965 67.993 C 101.444 71.326 104.597 69.276 107.709 67.733 C 108.002 67.588 107.87 66.586 107.936 65.982 C 108.467 65.406 108.998 64.831 109.901 64.285 C 111.823 66.562 113.373 68.809 114.922 71.055 Z" style="fill: rgba(30, 44, 54, 0.945);"/>
  <path fill="#28303B" opacity="1.000000" stroke="none" d="M 34.228 96.6 C 33.353 98.351 32.364 99.922 30.859 102.312 C 28.754 98.786 26.793 95.556 24.902 92.287 C 24.547 91.674 24.597 90.827 24.239 90.217 C 19.183 81.584 17.456 72.122 17.418 62.293 C 17.409 59.797 18.226 57.309 18.407 54.798 C 18.512 53.343 18.104 51.851 17.704 50.302 C 18.163 48.277 18.188 45.543 21.056 45.627 C 23.371 45.695 25.706 49.62 25.481 52.447 C 25.35 54.1 25.102 55.748 24.827 57.385 C 22.983 68.349 25.132 78.71 29.68 88.657 C 30.915 91.356 32.624 93.839 34.228 96.6 Z" style=""/>
  <path fill="#303B45" opacity="1.000000" stroke="none" d="M 55.755 5.688 C 55.755 5.688 56.049 5.628 56.402 5.697 C 58.926 6.52 60.438 5.766 61.392 3.739 C 69.131 0.907 77.089 0.673 85.166 1.68 C 88.104 2.047 91.087 2.124 93.992 2.649 C 95.957 3.004 97.89 3.762 99.716 4.603 C 104.147 6.646 108.508 8.841 113.146 11.096 C 112.085 13.016 111.302 14.433 110.194 16.021 C 108.563 15.566 107.246 14.962 105.951 14.313 C 97.67 10.16 88.863 7.488 79.654 7.644 C 73.103 7.755 66.581 9.496 60.043 10.485 C 59.791 10.523 59.502 10.311 59.228 10.214 C 59.509 9.442 59.768 8.731 60.09 7.848 C 58.164 7.729 55.817 8.764 55.755 5.688 Z" style=""/>
  <path fill="#232D36" opacity="1.000000" stroke="none" d="M 55.511 5.651 C 55.817 8.764 58.164 7.729 60.09 7.848 C 59.768 8.731 59.509 9.442 59.228 10.214 C 59.502 10.311 59.791 10.523 60.043 10.485 C 66.581 9.496 73.103 7.755 79.654 7.644 C 88.863 7.488 97.67 10.16 105.951 14.313 C 107.246 14.962 108.563 15.566 110.087 16.211 C 110.12 17.312 109.936 18.392 109.708 19.728 C 99.217 11.559 87.361 8.681 74.781 9.452 C 65.291 10.034 56 12.247 48.218 18.359 C 45.872 20.202 43.294 21.239 40.386 20.582 C 39.254 20.327 37.918 19.349 37.443 18.338 C 37.088 17.584 37.628 15.862 38.348 15.236 C 43.325 10.905 48.878 7.502 55.511 5.651 Z" style=""/>
  <path fill="#1E2933" opacity="1.000000" stroke="none" d="M 64.487 103.672 C 60.035 109.54 53.643 110.288 47.923 105.61 C 41.93 100.708 40.523 96.807 43.187 90.516 C 44.094 88.375 46.188 86.738 47.985 85.079 C 49.223 88.92 52.096 89.221 55.163 89.236 C 58.936 89.253 60.983 91.79 61.495 95.453 C 61.89 98.277 63.447 100.938 64.487 103.672 M 59.388 96.256 C 59.451 93.407 58.173 91.124 55.398 90.841 C 53.944 90.693 51.838 91.955 50.863 93.224 C 49.287 95.272 50.472 98.427 52.722 99.597 C 55.141 100.856 57.614 99.758 59.388 96.256 Z" style=""/>
  <path fill="#171E25" opacity="1.000000" stroke="none" d="M 43.139 72.884 C 44.605 75.217 49.105 76.638 52.001 75.924 C 54.251 75.369 56.593 74.801 58.877 74.863 C 61.567 74.936 64.239 75.683 66.99 76.372 C 61.322 76.826 55.585 77.131 49.844 77.223 C 47.567 77.26 45.25 76.986 43.018 76.526 C 42.194 76.356 41.273 75.375 40.894 74.539 C 39.218 70.839 37.634 67.091 36.181 63.298 C 32.26 53.057 28.396 42.794 24.568 32.518 C 23.514 29.686 22.693 26.767 21.713 23.906 C 19.943 18.742 16.076 17.414 10.689 19.277 C 8.595 20.001 5.684 19.767 3.644 18.855 C 1.438 17.868 0.562 15.241 1.068 12.637 C 1.204 11.932 1.885 11.334 2.541 10.639 C 3.435 11.64 4.362 12.607 4.721 13.752 C 5.716 16.918 6.809 17.122 10.063 16.598 C 13.321 16.073 16.897 16.107 20.049 16.955 C 21.606 17.374 22.915 20.024 23.652 21.93 C 25.781 27.433 27.479 33.102 29.503 38.648 C 31.632 44.487 33.942 50.259 36.217 56.48 C 36.461 57.195 36.66 57.49 36.859 57.786 C 37.26 58.897 37.66 60.008 38.073 61.521 C 39.769 65.576 41.454 69.23 43.139 72.884 Z" style=""/>
  <path fill="#293742" opacity="1.000000" stroke="none" d="M 89.12 49.11 C 87.335 51.937 85.551 54.763 83.332 57.686 C 82.032 58.06 81.174 58.364 80.299 58.605 C 77.715 59.318 75.144 60.486 72.531 60.599 C 67.576 60.813 62.594 60.417 57.613 60.053 C 57.267 59.406 56.931 58.979 56.595 58.553 C 56.304 58.922 56.012 59.292 55.513 59.663 C 55.026 59.667 54.748 59.668 54.566 59.448 C 56.341 56.608 53.542 55.002 53.218 52.836 C 59.26 53.029 65.302 53.261 71.345 53.381 C 72.671 53.407 74.006 53.03 75.827 52.798 C 78.464 50.451 80.611 48.145 82.959 45.927 C 85.147 47.047 87.133 48.079 89.12 49.11 Z" style=""/>
  <path fill="#37404B" opacity="1.000000" stroke="none" d="M 86.726 25.641 C 85.865 25.102 85.004 24.562 83.286 23.486 C 84.165 23.113 84.642 22.728 85.106 22.743 C 88.579 22.855 92.092 22.773 95.504 23.314 C 97.555 23.639 99.994 24.479 101.314 25.94 C 107.217 32.476 110.517 40.028 108.347 49.358 C 106.631 48.423 105.412 46.929 103.839 46.139 C 101.87 45.15 101.852 43.705 101.553 41.873 C 100.771 37.089 99.44 32.593 94.111 30.538 C 92.241 29.817 90.848 27.913 89.15 26.667 C 88.462 26.162 87.541 25.974 86.726 25.641 Z" style=""/>
  <path fill="#37404B" opacity="1.000000" stroke="none" d="M 89.28 48.909 C 87.133 48.079 85.147 47.047 82.961 45.642 C 83.811 35.099 76.773 29.568 68.374 29.933 C 69.018 27.621 69.607 25.464 70.197 23.306 C 85.057 25.001 91.333 33.285 89.28 48.909 Z" style=""/>
  <path fill="#28333F" opacity="1.000000" stroke="none" d="M 86.762 25.856 C 87.541 25.974 88.462 26.162 89.15 26.667 C 90.848 27.913 92.241 29.817 94.111 30.538 C 99.44 32.593 100.771 37.089 101.553 41.873 C 101.852 43.705 101.87 45.15 103.839 46.139 C 105.412 46.929 106.631 48.423 108.246 49.598 C 107.965 55.485 105.019 60.088 100.47 63.884 C 98.765 62.747 97.419 61.735 96.048 60.761 C 95.198 60.156 94.308 59.608 93.436 59.034 C 97.336 54.119 100.077 48.961 99.272 42.239 C 98.628 36.858 96.539 33.823 91.157 32.495 C 90.468 32.325 89.726 31.686 89.352 31.06 C 88.398 29.458 87.637 27.742 86.762 25.856 Z" style=""/>
  <path fill="#24323D" opacity="1.000000" stroke="none" d="M 134.969 82.314 C 135.753 82.082 136.538 81.85 137.84 81.466 C 134.537 79.911 134.172 77.703 134.518 75.1 C 134.748 73.36 134.765 71.592 134.679 69.779 C 134.459 69.448 134.436 69.176 134.625 68.652 C 135.094 67.818 135.353 67.235 135.611 66.652 C 137.91 65.763 140.209 64.874 143.164 63.732 C 142.927 66.615 142.717 69.479 142.45 72.338 C 141.591 81.546 137.283 89.544 133.48 97.712 C 133.229 98.251 132.662 98.641 132.06 99.211 C 129.102 99.669 128.824 97.714 129.427 96.006 C 130.478 93.029 132.084 90.253 133.362 87.351 C 134.005 85.889 134.438 84.335 134.967 82.569 C 134.968 82.315 134.969 82.314 134.969 82.314 Z" style=""/>
  <path fill="#1E2933" opacity="1.000000" stroke="none" d="M 114.156 99.281 C 112.463 104.8 108.357 107.846 103.012 108.537 C 97.798 109.21 93.269 106.76 90.432 102.354 C 87.869 98.373 88.093 93.878 90.128 89.638 C 90.226 92.168 89.54 94.763 90.216 96.934 C 90.855 98.982 92.59 101.2 94.457 102.216 C 96.487 103.322 97.809 101.227 98.721 99.383 C 103.666 101.214 106.534 98.812 105.835 93.79 C 105.748 93.159 106.365 92.431 106.863 91.861 C 107.349 92.497 107.668 93.004 107.9 93.548 C 109.017 96.152 110.11 98.766 111.342 101.685 C 112.715 100.512 113.436 99.896 114.156 99.281 Z" style=""/>
  <path fill="#28333F" opacity="1.000000" stroke="none" d="M 64.659 103.542 C 63.447 100.938 61.89 98.277 61.495 95.453 C 60.983 91.79 58.936 89.253 55.163 89.236 C 52.096 89.221 49.223 88.92 48.204 85.061 C 48.474 84.642 48.771 84.449 49.36 84.363 C 50.002 84.177 50.353 83.885 50.704 83.593 C 50.704 83.593 50.689 83.578 50.826 83.512 C 51.122 83.328 51.241 83.18 51.322 83 C 61.197 79.632 69.469 88.745 67.464 98.573 C 67.114 100.293 65.734 101.804 64.659 103.542 Z" style=""/>
  <path fill="#28333F" opacity="1.000000" stroke="none" d="M 115.102 70.944 C 113.373 68.809 111.823 66.562 110.087 64.215 C 110.666 63.178 111.432 62.24 112.481 61.001 C 113.247 59.054 113.961 57.437 114.166 55.759 C 114.585 52.328 114.73 48.863 115.019 45.007 C 117.629 46.824 119.659 48.239 121.691 49.653 C 121.483 53.48 121.522 57.34 120.998 61.123 C 120.455 65.042 118.215 68.199 115.102 70.944 Z" style=""/>
  <path fill="#293742" opacity="1.000000" stroke="none" d="M 114.266 99.046 C 113.436 99.896 112.715 100.512 111.342 101.685 C 110.11 98.766 109.017 96.152 107.9 93.548 C 107.668 93.004 107.349 92.497 106.756 91.671 C 104.658 90.672 102.874 89.977 100.846 89.263 C 99.478 87.773 98.353 86.302 97.3 84.667 C 97.531 84.184 97.69 83.865 97.851 83.547 C 102.936 81.024 107.154 83.176 110.885 86.359 C 114.7 89.615 115.691 93.963 114.266 99.046 Z" style=""/>
  <path opacity="1.000000" stroke="none" d="M 140.492 18.337 C 140.492 18.337 140.562 18.51 140.617 18.778 C 140.861 19.176 141.05 19.306 141.238 19.435 C 141.238 19.435 141.257 19.423 141.202 19.659 C 141.709 21.081 142.272 22.268 142.833 23.455 C 142.833 23.455 142.929 23.63 142.955 23.918 C 143.037 24.326 143.095 24.446 143.153 24.565 C 144.312 26.816 145.472 29.067 146.758 31.565 C 144.62 32.202 142.957 33.376 141.861 30.371 C 140.95 27.877 138.401 28.348 136.433 28.58 C 135.367 28.707 133.997 29.619 133.509 30.562 C 132.672 32.184 131.859 33.104 130.049 32.229 C 127.894 31.188 129.642 30.038 130.077 29.009 C 131.196 26.369 132.41 23.769 133.807 20.759 C 134.143 19.805 134.258 19.243 134.373 18.681 C 134.373 18.681 134.417 18.503 134.602 18.269 C 134.843 17.619 134.899 17.203 134.955 16.788 C 134.955 16.788 134.999 16.604 135.255 16.372 C 137.969 15.062 139.313 16.514 140.492 18.337 M 139.454 25.236 C 138.893 23.501 138.331 21.767 137.58 19.444 C 136.542 21.705 135.845 23.225 135.09 24.87 C 136.479 25.028 137.699 25.167 139.454 25.236 Z" style="fill: rgb(24, 89, 177);"/>
  <path opacity="1.000000" stroke="none" d="M 54.47 59.67 C 54.748 59.668 55.026 59.667 55.648 59.825 C 56.535 60.081 57.079 60.178 57.623 60.274 C 62.594 60.417 67.576 60.813 72.531 60.599 C 75.144 60.486 77.715 59.318 80.299 58.605 C 81.174 58.364 82.032 58.06 83.145 57.786 C 80.382 60.938 76.68 62.778 72.344 62.755 C 65.158 62.72 57.975 62.352 50.789 62.21 C 49.263 62.179 47.73 62.521 45.665 62.751 C 46.565 64.608 47.265 66.051 48.06 67.694 C 45.503 68.382 44.319 70.325 43.311 72.748 C 41.454 69.23 39.769 65.576 38.099 61.742 C 39.171 62.622 40.157 63.772 41.315 64.71 C 41.984 65.252 42.931 65.453 43.554 65.721 C 43.887 63.541 44.146 61.85 44.698 59.917 C 48.152 59.674 51.311 59.672 54.47 59.67 Z" style="fill: rgba(29, 40, 50, 0.918);"/>
  <path fill="#28333F" opacity="1.000000" stroke="none" d="M 54.451 24.591 C 54.729 24.568 55.008 24.545 55.542 24.726 C 56.408 24.802 57.018 24.675 57.629 24.547 C 59.972 24.127 62.315 23.708 64.878 23.496 C 62.778 25.727 63.85 28.325 63.822 30.93 C 63.58 31.604 63.418 32.096 63.256 32.589 C 61.488 34.199 59.721 35.809 57.61 37.369 C 56.067 37.349 54.832 37.211 53.676 37.451 C 52.022 37.795 50.425 38.416 48.832 38.695 C 49.89 36.106 50.92 33.739 51.975 31.149 C 52.451 28.673 56.31 27.738 54.451 24.591 Z" style=""/>
  <path fill="#24323D" opacity="1.000000" stroke="none" d="M 97.229 84.831 C 98.353 86.302 99.478 87.773 100.728 89.443 C 96.805 93.233 96.345 95.135 98.52 99.291 C 97.809 101.227 96.487 103.322 94.457 102.216 C 92.59 101.2 90.855 98.982 90.216 96.934 C 89.54 94.763 90.226 92.168 90.316 89.496 C 90.332 89.128 90.35 89.022 90.502 88.683 C 90.778 88.331 90.883 88.183 90.951 88.009 C 91.081 87.843 91.211 87.676 91.711 87.43 C 93.796 86.511 95.513 85.67 97.229 84.831 Z" style=""/>
  <path fill="#303B45" opacity="1.000000" stroke="none" d="M 93.219 59.071 C 94.308 59.608 95.198 60.156 96.048 60.761 C 97.419 61.735 98.765 62.747 100.254 63.917 C 99.58 65.018 98.774 65.945 97.899 67.208 C 97.829 67.543 97.824 67.819 97.824 67.819 C 97.824 67.819 97.526 67.826 97.234 67.683 C 94.292 67.94 91.647 68.627 88.993 68.665 C 86.082 68.707 83.163 68.151 80.035 67.854 C 79.333 67.639 78.844 67.427 78.355 67.215 C 83.237 64.512 88.119 61.81 93.219 59.071 Z" style=""/>
  <path fill="#28303B" opacity="1.000000" stroke="none" d="M 72.468 47.555 C 68.141 49.588 65.196 49.056 63.556 46.143 C 61.963 43.314 62.549 40.819 65.363 38.443 C 67.522 36.619 70.219 36.608 72.491 38.414 C 74.777 40.231 75.354 43.324 73.85 45.969 C 73.548 46.5 73.056 46.922 72.468 47.555 Z" style=""/>
  <path fill="#1E2933" opacity="1.000000" stroke="none" d="M 51.95 31.371 C 50.92 33.739 49.89 36.106 48.676 38.633 C 48.195 38.636 47.898 38.482 47.601 38.326 C 48.4 36.649 49.198 34.972 50.031 33.223 C 47.276 33.223 44.752 33.078 42.253 33.265 C 39.993 33.435 38.727 32.548 38.011 30.48 C 37.204 28.147 36.279 25.853 35.147 22.859 C 38.811 23.202 42.299 23.529 46.038 24.121 C 45.379 28.902 45.918 29.801 50.168 30.876 C 50.765 31.028 51.356 31.206 51.95 31.371 Z" style=""/>
  <path opacity="1.000000" stroke="none" d="M 139.162 56.871 C 139.735 56.7 140.118 56.608 140.501 56.515 C 140.572 56.653 140.643 56.791 140.714 56.929 C 139.945 57.387 139.214 57.932 138.399 58.289 C 135.691 59.478 134.988 59.045 135.062 56.127 C 135.137 53.208 135.376 50.292 135.506 47.373 C 135.542 46.565 135.445 45.75 135.399 44.685 C 126.035 45.285 119.134 41.444 116.345 32.662 C 114.078 25.524 114.984 17.95 120.415 11.835 C 119.839 13.208 119.156 14.945 118.371 16.187 C 115.155 21.276 115.445 26.862 117.049 32.084 C 117.915 34.902 120.071 37.144 122.39 39.322 C 122.947 39.846 124.157 41.118 127.218 41.48 C 130.728 43.676 130.395 43.344 134.164 42.82 C 135.878 42.582 137.499 46.093 137.204 48.41 C 136.919 50.662 136.85 52.971 137.014 55.231 C 137.058 55.848 138.287 56.379 139.162 56.871 Z" fill="#1959B1" style=""/>
  <path fill="#303B45" opacity="1.000000" stroke="none" d="M 47.531 38.474 C 47.898 38.482 48.195 38.636 48.648 38.855 C 50.425 38.416 52.022 37.795 53.676 37.451 C 54.832 37.211 56.067 37.349 57.438 37.489 C 57.191 40.19 56.635 42.708 56.4 45.254 C 56.246 46.922 55.667 47.734 53.966 47.701 C 51.795 47.659 49.623 47.67 47.173 47.336 C 46.889 44.771 46.886 42.529 46.882 40.288 C 47.075 39.733 47.268 39.177 47.531 38.474 Z" style=""/>
  <path fill="#192530" opacity="1.000000" stroke="none" d="M 63.521 32.602 C 63.418 32.096 63.58 31.604 64.066 30.897 C 65.699 30.484 67.009 30.285 68.319 30.086 C 76.773 29.568 83.811 35.099 82.761 45.553 C 80.611 48.145 78.464 50.451 76.088 52.759 C 78.106 50.418 79.877 47.95 80.303 44.487 C 81.442 35.212 72.886 30.885 65.606 32.17 C 64.992 32.279 64.392 32.465 63.521 32.602 Z" style=""/>
  <path fill="#24323D" opacity="1.000000" stroke="none" d="M 54.566 59.448 C 51.311 59.672 48.152 59.674 44.699 59.678 C 43.618 58.789 42.83 57.9 42.042 57.01 C 43.303 56.272 44.733 54.735 45.786 54.961 C 47.995 55.435 49.357 54.836 50.65 53.037 C 51.368 52.811 52.041 52.797 52.967 52.809 C 53.542 55.002 56.341 56.608 54.566 59.448 Z" style=""/>
  <path fill="#171E25" opacity="1.000000" stroke="none" d="M 121.711 49.419 C 119.659 48.239 117.629 46.824 115.019 45.007 C 114.73 48.863 114.585 52.328 114.166 55.759 C 113.961 57.437 113.247 59.054 112.566 60.815 C 112.155 57.442 111.715 53.948 111.793 50.466 C 111.868 47.096 112.476 43.739 112.849 40.393 C 112.997 40.356 113.156 40.276 113.193 40.314 C 116.045 43.265 118.888 46.225 121.711 49.419 Z" style=""/>
  <path fill="#192530" opacity="1.000000" stroke="none" d="M 78.654 76.628 C 79.696 73.813 82.46 74.982 84.381 74.917 C 90.233 74.717 96.108 75.307 101.975 75.325 C 104.681 75.333 107.389 74.725 110.251 74.543 C 106.297 78.016 101.399 77.268 96.693 77.219 C 90.777 77.157 84.864 76.848 78.654 76.628 Z" style=""/>
  <path fill="#1D2832" opacity="1.000000" stroke="none" d="M 79.82 97.993 C 78.409 98.022 77.201 98.244 76.128 97.96 C 75.059 97.676 73.624 97.095 73.27 96.256 C 72.896 95.369 73.308 93.822 73.911 92.922 C 75.097 91.149 80.167 91.226 81.6 92.839 C 83.329 94.788 82.952 96.062 79.82 97.993 Z" style=""/>
  <path fill="#303B45" opacity="1.000000" stroke="none" d="M 51.975 31.149 C 51.356 31.206 50.765 31.028 50.168 30.876 C 45.918 29.801 45.379 28.902 46.307 24.155 C 47.381 23.922 48.436 23.92 49.794 24.113 C 50.503 24.367 50.909 24.426 51.316 24.486 C 52.188 24.498 53.06 24.509 54.192 24.556 C 56.31 27.738 52.451 28.673 51.975 31.149 Z" style=""/>
  <path opacity="1.000000" stroke="none" d="M 151.549 31.677 C 149.789 32.19 148.536 32.513 148.55 30.287 C 148.58 25.915 148.775 21.543 148.944 17.172 C 148.953 16.951 148.981 14.555 150.98 16.191 C 151.804 18.281 151.664 20.461 151.661 23.18 C 151.816 26.553 151.613 28.872 151.549 31.677 Z" style="fill: rgb(24, 89, 177);"/>
  <path opacity="1.000000" stroke="none" d="M 156.022 16.22 C 155.917 14.988 156.846 14.162 157.801 13.945 C 158.906 13.695 160.151 15.126 159.988 16.287 C 159.658 18.635 159.266 22.896 158.72 24.564 C 158.35 25.692 157.697 26.152 157.2 24.535 C 156.885 23.513 156.173 17.452 156.022 16.22 Z" style="fill: rgb(24, 89, 177);"/>
  <path fill="#303B45" opacity="1.000000" stroke="none" d="M 68.374 29.933 C 67.009 30.285 65.699 30.484 64.144 30.716 C 63.85 28.325 62.778 25.727 65.131 23.489 C 66.656 23.259 68.149 23.245 69.919 23.269 C 69.607 25.464 69.018 27.621 68.374 29.933 Z" style=""/>
  <path opacity="1.000000" stroke="none" d="M 128.649 5.385 C 129.499 4.96 130.557 4.385 131.618 4.376 C 141.129 4.305 150.641 4.307 160.151 4.346 C 163.258 4.359 166.044 5.257 168.663 8.381 C 166.828 7.865 165.332 7.9 164.658 7.173 C 162.174 4.492 159.061 4.967 155.999 4.965 C 149.833 4.96 143.665 4.908 137.499 4.987 C 134.617 5.024 131.738 5.32 128.649 5.385 Z" style="fill: rgb(24, 89, 177);"/>
  <path fill="#464E59" opacity="1.000000" stroke="none" d="M 46.66 40.292 C 46.886 42.529 46.889 44.771 46.881 47.285 C 44.667 47.981 43.019 47.542 42.634 44.96 C 42.191 41.985 44.286 41.127 46.66 40.292 Z" style=""/>
  <path opacity="1.000000" stroke="none" d="M 156.903 28.409 C 157.912 26.574 158.685 27.439 159.316 28.327 C 159.854 29.084 159.958 30.11 159.237 31.281 C 158.636 32.258 157.822 32.355 157.211 31.167 C 156.598 29.909 156.631 29.972 156.903 28.409 Z" style="fill: rgb(24, 89, 177);"/>
  <path fill="#192530" opacity="1.000000" stroke="none" d="M 97.965 67.993 C 97.824 67.819 97.829 67.543 97.831 67.405 C 101.299 68.824 104.375 67.364 107.701 66.004 C 107.87 66.586 108.002 67.588 107.709 67.733 C 104.597 69.276 101.444 71.326 97.965 67.993 Z" style=""/>
  <path fill="#1D2832" opacity="1.000000" stroke="none" d="M 78.063 67.214 C 78.844 67.427 79.333 67.639 80.036 68.062 C 80.248 68.551 80.247 68.83 80.246 69.108 C 76.62 68.825 72.994 68.543 69.175 68.101 C 71.911 67.7 74.841 67.457 78.063 67.214 Z" style=""/>
  <path fill="#232D36" opacity="1.000000" stroke="none" d="M 61.137 3.725 C 60.438 5.766 58.926 6.52 56.55 5.672 C 57.857 4.956 59.369 4.334 61.137 3.725 Z" style=""/>
  <path fill="#1E2933" opacity="1.000000" stroke="none" d="M 97.3 84.667 C 95.513 85.67 93.796 86.511 91.855 87.361 C 93.548 86.105 95.465 84.839 97.616 83.56 C 97.69 83.865 97.531 84.184 97.3 84.667 Z" style=""/>
  <path fill="#171E25" opacity="1.000000" stroke="none" d="M 8.419 7.905 C 7.277 8.29 5.975 8.514 4.419 8.739 C 5.528 8.407 6.893 8.075 8.419 7.905 Z" style=""/>
  <path fill="#1D2832" opacity="1.000000" stroke="none" d="M 135.392 66.667 C 135.353 67.235 135.094 67.818 134.637 68.447 C 134.683 67.89 134.928 67.286 135.392 66.667 Z" style=""/>
  <path fill="#1E2933" opacity="1.000000" stroke="none" d="M 57.389 24.516 C 57.018 24.675 56.408 24.802 55.752 24.736 C 56.188 24.523 56.669 24.504 57.389 24.516 Z" style=""/>
  <path fill="#1E2933" opacity="1.000000" stroke="none" d="M 50.514 83.601 C 50.353 83.885 50.002 84.177 49.542 84.333 C 49.73 84 50.028 83.805 50.514 83.601 Z" style=""/>
  <path fill="#1D2832" opacity="1.000000" stroke="none" d="M 50.576 67.788 C 50.32 68.006 49.982 68.082 49.552 68.035 C 49.806 67.824 50.15 67.735 50.576 67.788 Z" style=""/>
  <path fill="#1E2933" opacity="1.000000" stroke="none" d="M 51.199 24.338 C 50.909 24.426 50.503 24.367 50.056 24.148 C 50.37 24.056 50.726 24.123 51.199 24.338 Z" style=""/>
  <path fill="#1E2933" opacity="1.000000" stroke="none" d="M 90.815 88.06 C 90.883 88.183 90.778 88.331 90.52 88.523 C 90.412 88.386 90.503 88.224 90.815 88.06 Z" style=""/>
  <path fill="#1E2933" opacity="1.000000" stroke="none" d="M 51.179 83.046 C 51.241 83.18 51.122 83.328 50.836 83.512 C 50.751 83.372 50.86 83.209 51.179 83.046 Z" style=""/>
  <path fill="#24323D" opacity="1.000000" stroke="none" d="M 134.967 82.316 C 134.897 82.234 134.826 82.151 134.757 82.069 C 134.806 82.098 134.854 82.127 134.936 82.234 C 134.969 82.314 134.968 82.315 134.967 82.316 Z" style=""/>
  <path fill="#1D2832" opacity="1.000000" stroke="none" d="M 36.994 57.674 C 36.66 57.49 36.461 57.195 36.248 56.713 C 36.533 56.872 36.831 57.218 36.994 57.674 Z" style=""/>
  <path fill="#28333F" opacity="1.000000" stroke="none" d="M 80.437 69.204 C 80.247 68.83 80.248 68.551 80.248 68.064 C 83.163 68.151 86.082 68.707 88.993 68.665 C 91.647 68.627 94.292 67.94 97.085 67.689 C 97.299 69.927 96.181 70.911 94.298 71.714 C 89.138 73.913 84.61 73.361 80.437 69.204 Z" style=""/>
  <path fill="#24323D" opacity="1.000000" stroke="none" d="M 57.613 60.053 C 57.079 60.178 56.535 60.081 55.856 59.823 C 56.012 59.292 56.304 58.922 56.595 58.553 C 56.931 58.979 57.267 59.406 57.613 60.053 Z" style=""/>
</svg>